cryptokit.ufo
<glyph name="dollar" format="2">
  <advance width="1200"/>
  <unicode hex="0024"/>
  <outline>
    <contour>
      <point x="159.35" y="301.4" type="curve" smooth="yes"/>
      <point x="159.35" y="58.2"/>
      <point x="356.8" y="-139.25"/>
      <point x="600" y="-139.25" type="curve" smooth="yes"/>
      <point x="843.2" y="-139.25"/>
      <point x="1040.65" y="58.2"/>
      <point x="1040.65" y="301.4" type="curve" smooth="yes"/>
      <point x="1040.65" y="544.6"/>
      <point x="843.2" y="742"/>
      <point x="600" y="742" type="curve" smooth="yes"/>
      <point x="356.8" y="742"/>
      <point x="159.35" y="544.6"/>
    </contour>
    <contour>
      <point x="503.65" y="667.25" type="line"/>
      <point x="534.45" y="675.35"/>
      <point x="566.75" y="679.65"/>
      <point x="600.05" y="679.65" type="curve" smooth="yes"/>
      <point x="809.55" y="679.65"/>
      <point x="979.65" y="509.55"/>
      <point x="979.65" y="299.9" type="curve"/>
      <point x="919.05" y="299.75" type="line"/>
      <point x="919.05" y="476.05"/>
      <point x="776.1" y="619"/>
      <point x="600.05" y="619" type="curve" smooth="yes"/>
      <point x="571.95" y="619"/>
      <point x="544.7" y="615.35"/>
      <point x="518.75" y="608.5" type="curve"/>
    </contour>
    <contour>
      <point x="626.1" y="14.15" type="line"/>
      <point x="575.55" y="14.15" type="line"/>
      <point x="575.55" y="75.7" type="line"/>
      <point x="511.5" y="80.55"/>
      <point x="468.1" y="107.05"/>
      <point x="439.8" y="145.65" type="curve"/>
      <point x="483.2" y="187.25" type="line"/>
      <point x="510.3" y="154.7"/>
      <point x="540.5" y="136.6"/>
      <point x="578.55" y="132.35" type="curve"/>
      <point x="578.55" y="270.55" type="line"/>
      <point x="564.65" y="272.95" type="line" smooth="yes"/>
      <point x="483.8" y="286.95"/>
      <point x="453.65" y="333.9"/>
      <point x="453.65" y="391.25" type="curve" smooth="yes"/>
      <point x="453.65" y="458.8"/>
      <point x="498.85" y="501.6"/>
      <point x="575.55" y="509.45" type="curve"/>
      <point x="575.55" y="571.6" type="line"/>
      <point x="626.1" y="571.6" type="line"/>
      <point x="626.1" y="509.45" type="line"/>
      <point x="679.3" y="504"/>
      <point x="717.25" y="482.3"/>
      <point x="745" y="446.75" type="curve"/>
      <point x="701" y="406.95" type="line"/>
      <point x="681.75" y="431.65"/>
      <point x="656.95" y="447.35"/>
      <point x="623.1" y="451.6" type="curve"/>
      <point x="623.1" y="323.65" type="line"/>
      <point x="639.45" y="321.2" type="line"/>
      <point x="719.7" y="306.75"/>
      <point x="751" y="261.5"/>
      <point x="751" y="202.95" type="curve" smooth="yes"/>
      <point x="751" y="134.2"/>
      <point x="705.8" y="87.15"/>
      <point x="626.1" y="77.5" type="curve"/>
    </contour>
    <contour>
      <point x="222.35" y="338.5" type="line"/>
      <point x="230.75" y="421.85"/>
      <point x="266.15" y="497.25"/>
      <point x="319.6" y="555.8" type="curve"/>
      <point x="364.2" y="514.7" type="line"/>
      <point x="319.35" y="465.45"/>
      <point x="289.65" y="402.15"/>
      <point x="282.65" y="332.15" type="curve"/>
    </contour>
    <contour>
      <point x="517.5" y="393.05" type="curve" smooth="yes"/>
      <point x="517.5" y="359.25"/>
      <point x="535.05" y="341.75"/>
      <point x="578.55" y="332.05" type="curve"/>
      <point x="578.55" y="452.8" type="line"/>
      <point x="538.1" y="447.95"/>
      <point x="517.5" y="427.45"/>
    </contour>
    <contour>
      <point x="687.15" y="199.95" type="curve" smooth="yes"/>
      <point x="687.15" y="236.15"/>
      <point x="668.4" y="253.65"/>
      <point x="623.1" y="262.1" type="curve"/>
      <point x="623.1" y="132.95" type="line"/>
      <point x="664.8" y="139"/>
      <point x="687.15" y="162.55"/>
    </contour>
    <contour>
      <point x="308.9" y="169.55" type="line"/>
      <point x="358.8" y="58.45"/>
      <point x="470.45" y="-19"/>
      <point x="600.05" y="-19" type="curve" smooth="yes"/>
      <point x="666.55" y="-19"/>
      <point x="728.35" y="1.4"/>
      <point x="779.45" y="36.3" type="curve"/>
      <point x="813.9" y="-13.6" type="line"/>
      <point x="752.95" y="-55.25"/>
      <point x="679.35" y="-79.65"/>
      <point x="600.05" y="-79.65" type="curve" smooth="yes"/>
      <point x="445.75" y="-79.65"/>
      <point x="312.9" y="12.55"/>
      <point x="253.5" y="144.8" type="curve"/>
    </contour>
  </outline>
</glyph>
<glyph name="percent" format="2">
  <advance width="1200"/>
  <unicode hex="0025"/>
  <outline>
    <contour>
      <point x="400.962" y="-49.1481" type="line"/>
      <point x="884.962" y="648.852" type="line"/>
      <point x="796.962" y="648.852" type="line"/>
      <point x="312.962" y="-49.1481" type="line"/>
    </contour>
    <contour>
      <point x="354.962" y="264.852" type="curve" smooth="yes"/>
      <point x="458.962" y="264.852"/>
      <point x="517.962" y="334.852"/>
      <point x="517.962" y="462.852" type="curve" smooth="yes"/>
      <point x="517.962" y="590.852"/>
      <point x="458.962" y="660.852"/>
      <point x="354.962" y="660.852" type="curve" smooth="yes"/>
      <point x="250.962" y="660.852"/>
      <point x="191.962" y="590.852"/>
      <point x="191.962" y="462.852" type="curve" smooth="yes"/>
      <point x="191.962" y="334.852"/>
      <point x="250.962" y="264.852"/>
    </contour>
    <contour>
      <point x="354.962" y="323.852" type="curve" smooth="yes"/>
      <point x="300.962" y="323.852"/>
      <point x="274.962" y="360.852"/>
      <point x="274.962" y="433.852" type="curve" smooth="yes"/>
      <point x="274.962" y="491.852" type="line" smooth="yes"/>
      <point x="274.962" y="564.852"/>
      <point x="300.962" y="601.852"/>
      <point x="354.962" y="601.852" type="curve" smooth="yes"/>
      <point x="408.962" y="601.852"/>
      <point x="434.962" y="564.852"/>
      <point x="434.962" y="491.852" type="curve" smooth="yes"/>
      <point x="434.962" y="433.852" type="line" smooth="yes"/>
      <point x="434.962" y="360.852"/>
      <point x="408.962" y="323.852"/>
    </contour>
    <contour>
      <point x="842.962" y="-61.1481" type="curve" smooth="yes"/>
      <point x="946.962" y="-61.1481"/>
      <point x="1005.96" y="8.85185"/>
      <point x="1005.96" y="136.852" type="curve" smooth="yes"/>
      <point x="1005.96" y="264.852"/>
      <point x="946.962" y="334.852"/>
      <point x="842.962" y="334.852" type="curve" smooth="yes"/>
      <point x="738.962" y="334.852"/>
      <point x="679.962" y="264.852"/>
      <point x="679.962" y="136.852" type="curve" smooth="yes"/>
      <point x="679.962" y="8.85185"/>
      <point x="738.962" y="-61.1481"/>
    </contour>
    <contour>
      <point x="842.962" y="-2.1481" type="curve" smooth="yes"/>
      <point x="788.962" y="-2.1481"/>
      <point x="762.962" y="34.8519"/>
      <point x="762.962" y="107.852" type="curve" smooth="yes"/>
      <point x="762.962" y="165.852" type="line" smooth="yes"/>
      <point x="762.962" y="238.852"/>
      <point x="788.962" y="275.852"/>
      <point x="842.962" y="275.852" type="curve" smooth="yes"/>
      <point x="896.962" y="275.852"/>
      <point x="922.962" y="238.852"/>
      <point x="922.962" y="165.852" type="curve" smooth="yes"/>
      <point x="922.962" y="107.852" type="line" smooth="yes"/>
      <point x="922.962" y="34.8519"/>
      <point x="896.962" y="-2.1481"/>
    </contour>
  </outline>
  <guideline angle="90" x="600" y="0"/>
</glyph>
<glyph name="multiply" format="2">
  <advance width="1200"/>
  <unicode hex="00D7"/>
  <outline>
    <contour>
      <point x="758.345" y="89" type="line"/>
      <point x="807.345" y="138" type="line"/>
      <point x="648.345" y="301" type="line"/>
      <point x="807.345" y="464" type="line"/>
      <point x="758.345" y="513" type="line"/>
      <point x="599.345" y="350" type="line"/>
      <point x="440.345" y="513" type="line"/>
      <point x="391.345" y="464" type="line"/>
      <point x="550.345" y="301" type="line"/>
      <point x="391.345" y="138" type="line"/>
      <point x="440.345" y="89" type="line"/>
      <point x="599.345" y="252" type="line"/>
    </contour>
  </outline>
</glyph>
<glyph name="ether_coin" format="2">
  <advance width="1200"/>
  <unicode hex="039E"/>
  <outline>
    <contour>
      <point x="157" y="299.6" type="curve" smooth="yes"/>
      <point x="157" y="543.9"/>
      <point x="355.3" y="742.2"/>
      <point x="599.6" y="742.2" type="curve" smooth="yes"/>
      <point x="843.85" y="742.2"/>
      <point x="1042.2" y="543.9"/>
      <point x="1042.2" y="299.6" type="curve" smooth="yes"/>
      <point x="1042.2" y="55.35"/>
      <point x="843.85" y="-143"/>
      <point x="599.6" y="-143" type="curve" smooth="yes"/>
      <point x="355.3" y="-143"/>
      <point x="157" y="55.35"/>
    </contour>
    <contour>
      <point x="216.5" y="299.6" type="curve" smooth="yes"/>
      <point x="216.5" y="88.2"/>
      <point x="388.15" y="-83.5"/>
      <point x="599.6" y="-83.5" type="curve" smooth="yes"/>
      <point x="811" y="-83.5"/>
      <point x="982.7" y="88.2"/>
      <point x="982.7" y="299.6" type="curve" smooth="yes"/>
      <point x="982.7" y="511.05"/>
      <point x="811" y="682.7"/>
      <point x="599.6" y="682.7" type="curve" smooth="yes"/>
      <point x="388.15" y="682.7"/>
      <point x="216.5" y="511.05"/>
    </contour>
    <contour>
      <point x="276.15" y="299.6" type="curve" smooth="yes"/>
      <point x="276.15" y="478.1"/>
      <point x="421.1" y="623.05"/>
      <point x="599.6" y="623.05" type="curve" smooth="yes"/>
      <point x="778.1" y="623.05"/>
      <point x="923" y="478.1"/>
      <point x="923" y="299.6" type="curve" smooth="yes"/>
      <point x="923" y="121.1"/>
      <point x="778.1" y="-23.8"/>
      <point x="599.6" y="-23.8" type="curve" smooth="yes"/>
      <point x="421.1" y="-23.8"/>
      <point x="276.15" y="121.1"/>
    </contour>
    <contour>
      <point x="434.9" y="447.45" type="line"/>
      <point x="762.5" y="447.45" type="line"/>
      <point x="762.5" y="521.7" type="line"/>
      <point x="434.9" y="521.7" type="line"/>
    </contour>
    <contour>
      <point x="470.95" y="266.15" type="line"/>
      <point x="725.4" y="266.15" type="line"/>
      <point x="725.4" y="340.4" type="line"/>
      <point x="470.95" y="340.4" type="line"/>
    </contour>
    <contour>
      <point x="434.9" y="78.2" type="line"/>
      <point x="762.5" y="78.2" type="line" name="hr00"/>
      <point x="762.5" y="152.45" type="line"/>
      <point x="434.9" y="152.45" type="line"/>
    </contour>
  </outline>
  <guideline angle="0" color="0.545098,0,0.545098,1" x="0" y="719.633"/>
  <guideline angle="0" color="0.545098,0,0.545098,1" x="0" y="-120.129"/>
  <guideline angle="0" color="0.545098,0,0.545098,1" x="0" y="-143"/>
  <guideline angle="0" color="0.564706,0.223529,0.94902,1" x="0" y="742.22"/>
</glyph>
<glyph name="new_sheqel" format="2">
  <advance width="1200"/>
  <unicode hex="20AA"/>
  <outline>
    <contour>
      <point x="159.35" y="301.4" type="curve" smooth="yes"/>
      <point x="159.35" y="58.2"/>
      <point x="356.8" y="-139.25"/>
      <point x="600" y="-139.25" type="curve" smooth="yes"/>
      <point x="843.2" y="-139.25"/>
      <point x="1040.65" y="58.2"/>
      <point x="1040.65" y="301.4" type="curve" smooth="yes"/>
      <point x="1040.65" y="544.6"/>
      <point x="843.2" y="742"/>
      <point x="600" y="742" type="curve" smooth="yes"/>
      <point x="356.8" y="742"/>
      <point x="159.35" y="544.6"/>
    </contour>
    <contour>
      <point x="503.65" y="667.25" type="line"/>
      <point x="534.45" y="675.35"/>
      <point x="566.75" y="679.65"/>
      <point x="600.05" y="679.65" type="curve" smooth="yes"/>
      <point x="809.55" y="679.65"/>
      <point x="979.65" y="509.55"/>
      <point x="979.65" y="299.9" type="curve"/>
      <point x="919.05" y="299.75" type="line"/>
      <point x="919.05" y="476.05"/>
      <point x="776.1" y="619"/>
      <point x="600.05" y="619" type="curve" smooth="yes"/>
      <point x="571.95" y="619"/>
      <point x="544.7" y="615.35"/>
      <point x="518.75" y="608.5" type="curve"/>
    </contour>
    <contour>
      <point x="222.35" y="338.5" type="line"/>
      <point x="230.75" y="421.85"/>
      <point x="266.15" y="497.25"/>
      <point x="319.6" y="555.8" type="curve"/>
      <point x="364.2" y="514.7" type="line"/>
      <point x="319.35" y="465.45"/>
      <point x="289.65" y="402.15"/>
      <point x="282.65" y="332.15" type="curve"/>
    </contour>
    <contour>
      <point x="643" y="79.7" type="curve" smooth="yes"/>
      <point x="533" y="79.7" type="line"/>
      <point x="533" y="419.2" type="line"/>
      <point x="585.45" y="419.2" type="line"/>
      <point x="585.45" y="126.5" type="line"/>
      <point x="638.05" y="126.5" type="line" smooth="yes"/>
      <point x="673" y="126.5"/>
      <point x="706.2" y="145.3"/>
      <point x="706.2" y="197.8" type="curve" smooth="yes"/>
      <point x="706.2" y="516" type="line"/>
      <point x="760.5" y="516" type="line"/>
      <point x="760.5" y="203.45" type="line" smooth="yes"/>
      <point x="760.5" y="120.3"/>
      <point x="711.8" y="79.7"/>
    </contour>
    <contour>
      <point x="498.55" y="469.2" type="line"/>
      <point x="498.55" y="79.7" type="line"/>
      <point x="444.2" y="79.7" type="line"/>
      <point x="444.2" y="516" type="line"/>
      <point x="554.9" y="516" type="line" smooth="yes"/>
      <point x="623.65" y="516"/>
      <point x="671.75" y="475.45"/>
      <point x="671.75" y="392.3" type="curve" smooth="yes"/>
      <point x="671.75" y="176.55" type="line"/>
      <point x="619.3" y="176.55" type="line"/>
      <point x="619.3" y="397.95" type="line" smooth="yes"/>
      <point x="619.3" y="450.45"/>
      <point x="587.35" y="469.2"/>
      <point x="552.4" y="469.2" type="curve" smooth="yes"/>
    </contour>
    <contour>
      <point x="308.9" y="169.55" type="line"/>
      <point x="358.8" y="58.45"/>
      <point x="470.45" y="-19"/>
      <point x="600.05" y="-19" type="curve" smooth="yes"/>
      <point x="666.55" y="-19"/>
      <point x="728.35" y="1.4"/>
      <point x="779.45" y="36.3" type="curve"/>
      <point x="813.9" y="-13.6" type="line"/>
      <point x="752.95" y="-55.25"/>
      <point x="679.35" y="-79.65"/>
      <point x="600.05" y="-79.65" type="curve" smooth="yes"/>
      <point x="445.75" y="-79.65"/>
      <point x="312.9" y="12.55"/>
      <point x="253.5" y="144.8" type="curve"/>
    </contour>
  </outline>
</glyph>
<glyph name="euro" format="2">
  <advance width="1200"/>
  <unicode hex="20AC"/>
  <outline>
    <contour>
      <point x="159.35" y="301.4" type="curve" smooth="yes"/>
      <point x="159.35" y="58.2"/>
      <point x="356.8" y="-139.25"/>
      <point x="600" y="-139.25" type="curve" smooth="yes"/>
      <point x="843.2" y="-139.25"/>
      <point x="1040.65" y="58.2"/>
      <point x="1040.65" y="301.4" type="curve" smooth="yes"/>
      <point x="1040.65" y="544.6"/>
      <point x="843.2" y="742"/>
      <point x="600" y="742" type="curve" smooth="yes"/>
      <point x="356.8" y="742"/>
      <point x="159.35" y="544.6"/>
    </contour>
    <contour>
      <point x="503.65" y="667.25" type="line"/>
      <point x="534.45" y="675.35"/>
      <point x="566.75" y="679.65"/>
      <point x="600.05" y="679.65" type="curve" smooth="yes"/>
      <point x="809.55" y="679.65"/>
      <point x="979.65" y="509.55"/>
      <point x="979.65" y="299.9" type="curve"/>
      <point x="919.05" y="299.75" type="line"/>
      <point x="919.05" y="476.05"/>
      <point x="776.1" y="619"/>
      <point x="600.05" y="619" type="curve" smooth="yes"/>
      <point x="571.95" y="619"/>
      <point x="544.7" y="615.35"/>
      <point x="518.75" y="608.5" type="curve"/>
    </contour>
    <contour>
      <point x="222.35" y="338.5" type="line"/>
      <point x="230.75" y="421.85"/>
      <point x="266.15" y="497.25"/>
      <point x="319.6" y="555.8" type="curve"/>
      <point x="364.2" y="514.7" type="line"/>
      <point x="319.35" y="465.45"/>
      <point x="289.65" y="402.15"/>
      <point x="282.65" y="332.15" type="curve"/>
    </contour>
    <contour>
      <point x="613.15" y="73.35" type="curve" smooth="yes"/>
      <point x="504.35" y="73.35"/>
      <point x="446.6" y="154.7"/>
      <point x="446.6" y="297.7" type="curve" smooth="yes"/>
      <point x="446.6" y="440.75"/>
      <point x="504.35" y="522.15"/>
      <point x="613.15" y="522.15" type="curve" smooth="yes"/>
      <point x="695.2" y="522.15"/>
      <point x="729.4" y="478.7"/>
      <point x="753" y="435.15" type="curve"/>
      <point x="698.9" y="404" type="line"/>
      <point x="682.75" y="440.15"/>
      <point x="660.35" y="465.6"/>
      <point x="615" y="465.6" type="curve" smooth="yes"/>
      <point x="560.9" y="465.6"/>
      <point x="530.45" y="430.15"/>
      <point x="521.1" y="372.25" type="curve"/>
      <point x="661" y="372.25" type="line"/>
      <point x="661" y="323.85" type="line"/>
      <point x="518" y="323.85" type="line"/>
      <point x="518" y="271.55" type="line"/>
      <point x="661" y="271.55" type="line"/>
      <point x="661" y="223.15" type="line"/>
      <point x="521.1" y="223.15" type="line"/>
      <point x="530.45" y="165.3"/>
      <point x="560.9" y="129.8"/>
      <point x="615" y="129.8" type="curve" smooth="yes"/>
      <point x="660.35" y="129.8"/>
      <point x="682.75" y="155.35"/>
      <point x="698.9" y="191.4" type="curve"/>
      <point x="753" y="160.3" type="line"/>
      <point x="729.4" y="116.8"/>
      <point x="695.2" y="73.35"/>
    </contour>
    <contour>
      <point x="308.9" y="169.55" type="line"/>
      <point x="358.8" y="58.45"/>
      <point x="470.45" y="-19"/>
      <point x="600.05" y="-19" type="curve" smooth="yes"/>
      <point x="666.55" y="-19"/>
      <point x="728.35" y="1.4"/>
      <point x="779.45" y="36.3" type="curve"/>
      <point x="813.9" y="-13.6" type="line"/>
      <point x="752.95" y="-55.25"/>
      <point x="679.35" y="-79.65"/>
      <point x="600.05" y="-79.65" type="curve" smooth="yes"/>
      <point x="445.75" y="-79.65"/>
      <point x="312.9" y="12.55"/>
      <point x="253.5" y="144.8" type="curve"/>
    </contour>
  </outline>
</glyph>
<glyph name="bitcoin" format="2">
  <advance width="1200"/>
  <unicode hex="20BF"/>
  <outline>
    <contour>
      <point x="1016.35" y="630.45" type="line" smooth="yes"/>
      <point x="1016.35" y="686.2"/>
      <point x="982.55" y="720.25"/>
      <point x="924.25" y="720.25" type="curve" smooth="yes"/>
      <point x="267.6" y="720.25" type="line" smooth="yes"/>
      <point x="210.55" y="720.25"/>
      <point x="176.65" y="686.2"/>
      <point x="176.65" y="630.45" type="curve" smooth="yes"/>
      <point x="176.65" y="-30.55" type="line" smooth="yes"/>
      <point x="176.65" y="-86.3"/>
      <point x="210.55" y="-120.4"/>
      <point x="267.6" y="-120.4" type="curve" smooth="yes"/>
      <point x="924.25" y="-120.4" type="line" smooth="yes"/>
      <point x="982.55" y="-120.4"/>
      <point x="1016.35" y="-86.3"/>
      <point x="1016.35" y="-30.55" type="curve" smooth="yes"/>
    </contour>
    <contour>
      <point x="604.25" y="-42.45" type="line"/>
      <point x="604.25" y="36.55" type="line"/>
      <point x="567.25" y="36.55" type="line"/>
      <point x="567.25" y="-42.45" type="line"/>
      <point x="511.25" y="-42.45" type="line"/>
      <point x="511.25" y="36.55" type="line"/>
      <point x="430.25" y="36.55" type="line"/>
      <point x="430.25" y="554.55" type="line"/>
      <point x="511.25" y="554.55" type="line"/>
      <point x="511.25" y="633.55" type="line"/>
      <point x="567.25" y="633.55" type="line"/>
      <point x="567.25" y="554.55" type="line"/>
      <point x="604.25" y="554.55" type="line"/>
      <point x="604.25" y="633.55" type="line"/>
      <point x="660.25" y="633.55" type="line"/>
      <point x="660.25" y="550.55" type="line"/>
      <point x="730.25" y="535.55"/>
      <point x="772.25" y="488.55"/>
      <point x="772.25" y="421.55" type="curve" smooth="yes" name="hr01"/>
      <point x="772.25" y="360.55"/>
      <point x="740.25" y="325.55"/>
      <point x="691.25" y="309.55" type="curve"/>
      <point x="691.25" y="307.55" type="line"/>
      <point x="751.25" y="293.55"/>
      <point x="791.25" y="249.55"/>
      <point x="791.25" y="178.55" type="curve" smooth="yes"/>
      <point x="791.25" y="102.55"/>
      <point x="738.25" y="47.55"/>
      <point x="660.25" y="37.55" type="curve"/>
      <point x="660.25" y="-42.45" type="line"/>
    </contour>
    <contour>
      <point x="503.25" y="490.55" type="line"/>
      <point x="503.25" y="336.55" type="line"/>
      <point x="609.25" y="336.55" type="line" smooth="yes"/>
      <point x="660.25" y="336.55"/>
      <point x="691.25" y="363.55"/>
      <point x="691.25" y="398.55" type="curve" smooth="yes"/>
      <point x="691.25" y="427.55" type="line" smooth="yes"/>
      <point x="691.25" y="469.55"/>
      <point x="660.25" y="490.55"/>
      <point x="609.25" y="490.55" type="curve" smooth="yes"/>
    </contour>
    <contour>
      <point x="503.25" y="271.55" type="line"/>
      <point x="503.25" y="100.55" type="line"/>
      <point x="619.25" y="100.55" type="line" smooth="yes"/>
      <point x="676.25" y="100.55"/>
      <point x="709.25" y="124.55"/>
      <point x="709.25" y="171.55" type="curve" smooth="yes"/>
      <point x="709.25" y="201.55" type="line" smooth="yes" name="hr02"/>
      <point x="709.25" y="246.55"/>
      <point x="676.25" y="271.55"/>
      <point x="619.25" y="271.55" type="curve" smooth="yes"/>
    </contour>
  </outline>
</glyph>
<glyph name="arrowright" format="2">
  <advance width="1200"/>
  <unicode hex="2192"/>
  <outline>
    <contour>
      <point x="982.8" y="299.95" type="line" name="hr00"/>
      <point x="775.8" y="506.95" type="line"/>
      <point x="726.8" y="458.95" type="line"/>
      <point x="813.8" y="372.95" type="line"/>
      <point x="863.8" y="330.95" type="line"/>
      <point x="862.8" y="327.95" type="line"/>
      <point x="765.8" y="333.95" type="line"/>
      <point x="30.25" y="333.95" type="line"/>
      <point x="30.25" y="265.95" type="line"/>
      <point x="765.8" y="265.95" type="line"/>
      <point x="862.8" y="271.95" type="line"/>
      <point x="863.8" y="268.95" type="line"/>
      <point x="813.8" y="226.95" type="line"/>
      <point x="726.8" y="140.95" type="line"/>
      <point x="775.8" y="92.95" type="line"/>
    </contour>
  </outline>
  <guideline angle="0" x="0" y="300"/>
</glyph>
<glyph name="arrowupright" format="2">
  <advance width="1200"/>
  <unicode hex="2197"/>
  <outline>
    <contour>
      <point x="936.2" y="652.25" type="line" name="hr00"/>
      <point x="643.45" y="652.25" type="line"/>
      <point x="642.75" y="583.65" type="line"/>
      <point x="765.1" y="584.4" type="line"/>
      <point x="830.15" y="590.05" type="line"/>
      <point x="831.55" y="587.2" type="line"/>
      <point x="758.7" y="522.85" type="line"/>
      <point x="231.55" y="-4.30002" type="line"/>
      <point x="279.65" y="-52.4" type="line"/>
      <point x="806.8" y="474.8" type="line"/>
      <point x="871.15" y="547.6" type="line"/>
      <point x="873.95" y="546.2" type="line"/>
      <point x="868.3" y="481.15" type="line"/>
      <point x="867.6" y="358.8" type="line"/>
      <point x="936.2" y="359.5" type="line"/>
    </contour>
  </outline>
</glyph>
<glyph name="arrowdownright" format="2">
  <advance width="1200"/>
  <unicode hex="2198"/>
  <outline>
    <contour>
      <point x="937.1" y="-52.4" type="line" name="hr00"/>
      <point x="937.1" y="240.35" type="line"/>
      <point x="868.5" y="241.05" type="line"/>
      <point x="869.25" y="118.75" type="line"/>
      <point x="874.9" y="53.7" type="line"/>
      <point x="872.05" y="52.25" type="line"/>
      <point x="807.7" y="125.1" type="line"/>
      <point x="280.55" y="652.25" type="line"/>
      <point x="232.45" y="604.2" type="line"/>
      <point x="759.65" y="77" type="line"/>
      <point x="832.45" y="12.65" type="line"/>
      <point x="831.05" y="9.85" type="line"/>
      <point x="766" y="15.5" type="line"/>
      <point x="643.65" y="16.2" type="line"/>
      <point x="644.35" y="-52.4" type="line"/>
    </contour>
  </outline>
</glyph>
<glyph name="arrowdownleft" format="2">
  <advance width="1200"/>
  <unicode hex="2199"/>
  <outline>
    <contour>
      <point x="260.5" y="-52.4" type="line" name="hr00"/>
      <point x="553.25" y="-52.4" type="line"/>
      <point x="553.95" y="16.2" type="line"/>
      <point x="431.6" y="15.5" type="line"/>
      <point x="366.55" y="9.85" type="line"/>
      <point x="365.15" y="12.65" type="line"/>
      <point x="438" y="77" type="line"/>
      <point x="965.15" y="604.2" type="line"/>
      <point x="917.05" y="652.25" type="line"/>
      <point x="389.9" y="125.1" type="line"/>
      <point x="325.55" y="52.25" type="line"/>
      <point x="322.75" y="53.7" type="line"/>
      <point x="328.4" y="118.75" type="line"/>
      <point x="329.1" y="241.05" type="line"/>
      <point x="260.5" y="240.35" type="line"/>
    </contour>
  </outline>
</glyph>
<glyph name="arrowdownleftcorner" format="2">
  <advance width="1200"/>
  <unicode hex="21B2"/>
  <outline>
    <contour>
      <point x="156.25" y="300" type="line" name="hr00"/>
      <point x="363.25" y="93" type="line"/>
      <point x="411.25" y="141" type="line"/>
      <point x="325.25" y="227" type="line"/>
      <point x="275.25" y="269" type="line"/>
      <point x="276.25" y="272" type="line"/>
      <point x="372.25" y="266" type="line"/>
      <point x="634.008" y="266" type="line"/>
      <point x="634.008" y="950.4" type="line"/>
      <point x="566.008" y="950.4" type="line"/>
      <point x="566.008" y="334" type="line"/>
      <point x="372.25" y="334" type="line"/>
      <point x="276.25" y="328" type="line"/>
      <point x="275.25" y="331" type="line"/>
      <point x="325.25" y="373" type="line"/>
      <point x="411.25" y="459" type="line"/>
      <point x="363.25" y="507" type="line"/>
    </contour>
  </outline>
</glyph>
<glyph name="arrowleftdowncorner" format="2">
  <advance width="1200"/>
  <unicode hex="21B5"/>
  <outline>
    <contour>
      <point x="599.6" y="-163" type="line" name="hr00"/>
      <point x="806.6" y="44" type="line"/>
      <point x="758.6" y="93" type="line"/>
      <point x="672.6" y="6" type="line"/>
      <point x="630.6" y="-44" type="line"/>
      <point x="627.6" y="-43" type="line"/>
      <point x="633.6" y="54" type="line"/>
      <point x="633.6" y="266" type="line"/>
      <point x="1174" y="266" type="line"/>
      <point x="1174" y="334" type="line"/>
      <point x="565.6" y="334" type="line"/>
      <point x="565.6" y="54" type="line"/>
      <point x="571.6" y="-43" type="line"/>
      <point x="568.6" y="-44" type="line"/>
      <point x="526.6" y="6" type="line"/>
      <point x="440.6" y="93" type="line"/>
      <point x="392.6" y="44" type="line"/>
    </contour>
  </outline>
</glyph>
<glyph name="arrowdownclockhalf" format="2">
  <advance width="1200"/>
  <unicode hex="21B7"/>
  <outline>
    <contour>
      <point x="770" y="41" type="line" name="hr00"/>
      <point x="977" y="248" type="line"/>
      <point x="929" y="297" type="line"/>
      <point x="843" y="210" type="line"/>
      <point x="801" y="160" type="line"/>
      <point x="798" y="161" type="line"/>
      <point x="804" y="258" type="line"/>
      <point x="804" y="421" type="line" smooth="yes"/>
      <point x="804" y="545"/>
      <point x="731" y="654"/>
      <point x="598" y="654" type="curve" smooth="yes"/>
      <point x="478" y="654"/>
      <point x="394" y="569"/>
      <point x="394" y="442" type="curve" smooth="yes"/>
      <point x="394" y="431" type="line"/>
      <point x="462" y="431" type="line"/>
      <point x="462" y="442" type="line" smooth="yes"/>
      <point x="462" y="529"/>
      <point x="521" y="588"/>
      <point x="598" y="588" type="curve" smooth="yes"/>
      <point x="697" y="588"/>
      <point x="736" y="505"/>
      <point x="736" y="420" type="curve" smooth="yes"/>
      <point x="736" y="258" type="line"/>
      <point x="742" y="161" type="line"/>
      <point x="739" y="160" type="line"/>
      <point x="697" y="210" type="line"/>
      <point x="611" y="297" type="line"/>
      <point x="563" y="248" type="line"/>
    </contour>
  </outline>
</glyph>
<glyph name="arrowupleftcounterclock" format="2">
  <advance width="1200"/>
  <unicode hex="21BA"/>
  <outline>
    <contour>
      <point x="576" y="698" type="line" name="hr00"/>
      <point x="576" y="410" type="line"/>
      <point x="644" y="410" type="line"/>
      <point x="644" y="526" type="line"/>
      <point x="639" y="583" type="line"/>
      <point x="642" y="584" type="line"/>
      <point x="685" y="548" type="line" smooth="yes"/>
      <point x="756" y="488"/>
      <point x="806" y="421"/>
      <point x="806" y="301" type="curve" smooth="yes"/>
      <point x="806" y="158"/>
      <point x="727" y="50"/>
      <point x="601" y="50" type="curve" smooth="yes"/>
      <point x="479" y="50"/>
      <point x="394" y="145"/>
      <point x="394" y="296" type="curve" smooth="yes"/>
      <point x="394" y="406"/>
      <point x="441" y="488"/>
      <point x="529" y="544" type="curve"/>
      <point x="491" y="593" type="line"/>
      <point x="393" y="534"/>
      <point x="326" y="424"/>
      <point x="326" y="296" type="curve" smooth="yes"/>
      <point x="326" y="108"/>
      <point x="442" y="-12"/>
      <point x="601" y="-12" type="curve" smooth="yes"/>
      <point x="766" y="-12"/>
      <point x="874" y="117"/>
      <point x="874" y="301" type="curve" smooth="yes"/>
      <point x="874" y="459"/>
      <point x="799" y="540"/>
      <point x="727" y="599" type="curve" smooth="yes"/>
      <point x="687" y="632" type="line"/>
      <point x="688" y="635" type="line"/>
      <point x="749" y="630" type="line"/>
      <point x="864" y="630" type="line"/>
      <point x="864" y="698" type="line"/>
    </contour>
  </outline>
</glyph>
<glyph name="arrowuprightclock" format="2">
  <advance width="1200"/>
  <unicode hex="21BB"/>
  <outline>
    <contour>
      <point x="624" y="698" type="line" name="hr00"/>
      <point x="336" y="698" type="line"/>
      <point x="336" y="630" type="line"/>
      <point x="451" y="630" type="line"/>
      <point x="512" y="635" type="line"/>
      <point x="513" y="632" type="line"/>
      <point x="473" y="599" type="line" smooth="yes"/>
      <point x="401" y="540"/>
      <point x="326" y="459"/>
      <point x="326" y="301" type="curve" smooth="yes"/>
      <point x="326" y="117"/>
      <point x="434" y="-12"/>
      <point x="599" y="-12" type="curve" smooth="yes"/>
      <point x="758" y="-12"/>
      <point x="874" y="108"/>
      <point x="874" y="296" type="curve" smooth="yes"/>
      <point x="874" y="424"/>
      <point x="807" y="534"/>
      <point x="709" y="593" type="curve"/>
      <point x="671" y="544" type="line"/>
      <point x="759" y="488"/>
      <point x="806" y="406"/>
      <point x="806" y="296" type="curve" smooth="yes"/>
      <point x="806" y="145"/>
      <point x="721" y="50"/>
      <point x="599" y="50" type="curve" smooth="yes"/>
      <point x="473" y="50"/>
      <point x="394" y="158"/>
      <point x="394" y="301" type="curve" smooth="yes"/>
      <point x="394" y="421"/>
      <point x="444" y="488"/>
      <point x="515" y="548" type="curve" smooth="yes"/>
      <point x="558" y="584" type="line"/>
      <point x="561" y="583" type="line"/>
      <point x="556" y="526" type="line"/>
      <point x="556" y="410" type="line"/>
      <point x="624" y="410" type="line"/>
    </contour>
  </outline>
</glyph>
<glyph name="arrowrightarrowleft" format="2">
  <advance width="1200"/>
  <unicode hex="21C4"/>
  <outline>
    <contour>
      <point x="1099.8" y="451.195" type="line" name="hr00"/>
      <point x="892.8" y="658.195" type="line"/>
      <point x="843.8" y="610.195" type="line"/>
      <point x="930.8" y="524.195" type="line"/>
      <point x="980.8" y="482.195" type="line"/>
      <point x="979.8" y="479.195" type="line"/>
      <point x="882.8" y="485.195" type="line"/>
      <point x="240.25" y="485.195" type="line"/>
      <point x="240.25" y="417.195" type="line"/>
      <point x="882.8" y="417.195" type="line"/>
      <point x="979.8" y="423.195" type="line"/>
      <point x="980.8" y="420.195" type="line"/>
      <point x="930.8" y="378.195" type="line"/>
      <point x="843.8" y="292.195" type="line"/>
      <point x="892.8" y="244.195" type="line"/>
    </contour>
    <contour>
      <point x="100.55" y="145.945" type="line" name="hr00.1"/>
      <point x="307.55" y="-61.0546" type="line"/>
      <point x="356.55" y="-13.0546" type="line"/>
      <point x="269.55" y="72.9454" type="line"/>
      <point x="219.55" y="114.945" type="line"/>
      <point x="220.55" y="117.945" type="line"/>
      <point x="317.55" y="111.945" type="line"/>
      <point x="960.05" y="111.945" type="line"/>
      <point x="960.05" y="179.945" type="line"/>
      <point x="317.55" y="179.945" type="line"/>
      <point x="220.55" y="173.945" type="line"/>
      <point x="219.55" y="176.945" type="line"/>
      <point x="269.55" y="218.945" type="line"/>
      <point x="356.55" y="304.945" type="line"/>
      <point x="307.55" y="352.945" type="line"/>
    </contour>
  </outline>
  <guideline angle="0" x="0" y="451.245"/>
</glyph>
<glyph name="arrowleftarrowright" format="2">
  <advance width="1200"/>
  <unicode hex="21C6"/>
  <outline>
    <contour>
      <point x="100.123" y="453.95" type="line" name="hr00"/>
      <point x="307.123" y="246.95" type="line"/>
      <point x="356.123" y="294.95" type="line"/>
      <point x="269.123" y="380.95" type="line"/>
      <point x="219.123" y="422.95" type="line"/>
      <point x="220.123" y="425.95" type="line"/>
      <point x="317.123" y="419.95" type="line"/>
      <point x="948.62" y="419.95" type="line"/>
      <point x="948.62" y="487.95" type="line"/>
      <point x="317.123" y="487.95" type="line"/>
      <point x="220.123" y="481.95" type="line"/>
      <point x="219.123" y="484.95" type="line"/>
      <point x="269.123" y="526.95" type="line"/>
      <point x="356.123" y="612.95" type="line"/>
      <point x="307.123" y="660.95" type="line"/>
    </contour>
    <contour>
      <point x="1099.02" y="148.95" type="line" name="hr00.1"/>
      <point x="892.023" y="355.95" type="line"/>
      <point x="843.023" y="307.95" type="line"/>
      <point x="930.023" y="221.95" type="line"/>
      <point x="980.02" y="179.95" type="line"/>
      <point x="979.02" y="176.95" type="line"/>
      <point x="882.023" y="182.95" type="line"/>
      <point x="250.523" y="182.95" type="line"/>
      <point x="250.523" y="114.95" type="line"/>
      <point x="882.023" y="114.95" type="line"/>
      <point x="979.02" y="120.95" type="line"/>
      <point x="980.02" y="117.95" type="line"/>
      <point x="930.023" y="75.95" type="line"/>
      <point x="843.023" y="-10.05" type="line"/>
      <point x="892.023" y="-58.05" type="line"/>
    </contour>
  </outline>
  <guideline angle="0" x="0" y="149"/>
</glyph>
<glyph name="arrowleftdashed" format="2">
  <advance width="1200"/>
  <unicode hex="21E0"/>
  <outline>
    <contour>
      <point x="217.51" y="299.9" type="line" name="hr00"/>
      <point x="424.51" y="92.9" type="line"/>
      <point x="473.51" y="140.9" type="line"/>
      <point x="386.51" y="226.9" type="line"/>
      <point x="336.51" y="268.9" type="line"/>
      <point x="337.51" y="271.9" type="line"/>
      <point x="434.51" y="265.9" type="line"/>
      <point x="550.387" y="265.9" type="line"/>
      <point x="550.387" y="333.9" type="line"/>
      <point x="434.51" y="333.9" type="line"/>
      <point x="337.51" y="327.9" type="line"/>
      <point x="336.51" y="330.9" type="line"/>
      <point x="386.51" y="372.9" type="line"/>
      <point x="473.51" y="458.9" type="line"/>
      <point x="424.51" y="506.9" type="line"/>
    </contour>
    <contour>
      <point x="1151.51" y="265.95" type="line" name="hr00"/>
      <point x="1151.51" y="333.95" type="line"/>
      <point x="950.31" y="333.95" type="line"/>
      <point x="950.31" y="265.95" type="line"/>
    </contour>
    <contour>
      <point x="851.26" y="265.95" type="line"/>
      <point x="851.26" y="333.95" type="line"/>
      <point x="650.11" y="333.95" type="line"/>
      <point x="650.11" y="265.95" type="line"/>
    </contour>
  </outline>
</glyph>
<glyph name="arrowrightdashed" format="2">
  <advance width="1200"/>
  <unicode hex="21E2"/>
  <outline>
    <contour>
      <point x="982.8" y="299.95" type="line" name="hr00"/>
      <point x="775.8" y="506.95" type="line"/>
      <point x="726.8" y="458.95" type="line"/>
      <point x="813.8" y="372.95" type="line"/>
      <point x="863.8" y="330.95" type="line"/>
      <point x="862.8" y="327.95" type="line"/>
      <point x="765.8" y="333.95" type="line"/>
      <point x="649.924" y="333.95" type="line"/>
      <point x="649.924" y="265.95" type="line"/>
      <point x="765.8" y="265.95" type="line"/>
      <point x="862.8" y="271.95" type="line"/>
      <point x="863.8" y="268.95" type="line"/>
      <point x="813.8" y="226.95" type="line"/>
      <point x="726.8" y="140.95" type="line"/>
      <point x="775.8" y="92.95" type="line"/>
    </contour>
    <contour>
      <point x="48.8" y="266" type="line" name="hr00"/>
      <point x="250" y="266" type="line"/>
      <point x="250" y="334" type="line"/>
      <point x="48.8" y="334" type="line"/>
    </contour>
    <contour>
      <point x="349.05" y="266" type="line"/>
      <point x="550.2" y="266" type="line"/>
      <point x="550.2" y="334" type="line"/>
      <point x="349.05" y="334" type="line"/>
    </contour>
  </outline>
</glyph>
<glyph name="timerclock" format="2">
  <advance width="1200"/>
  <unicode hex="23F2"/>
  <outline>
    <contour>
      <point x="281.95" y="300" type="line"/>
      <point x="281.95" y="124.45"/>
      <point x="424.45" y="-18.05"/>
      <point x="600" y="-18.05" type="curve" smooth="yes"/>
      <point x="775.55" y="-18.05"/>
      <point x="918.05" y="124.45"/>
      <point x="918.05" y="300" type="curve" smooth="yes"/>
      <point x="918.05" y="461.15"/>
      <point x="797.95" y="594.45"/>
      <point x="642.5" y="615.2" type="curve"/>
      <point x="642.5" y="545" type="line"/>
      <point x="758.075" y="524.374"/>
      <point x="846" y="422.474"/>
      <point x="846" y="300" type="curve" smooth="yes"/>
      <point x="846" y="164.272"/>
      <point x="735.728" y="54"/>
      <point x="600" y="54" type="curve" smooth="yes"/>
      <point x="464.272" y="54"/>
      <point x="354" y="164.272"/>
      <point x="354" y="300" type="curve"/>
    </contour>
    <contour>
      <point x="522.8" y="536.1" type="line"/>
      <point x="522.8" y="241.75" type="line"/>
      <point x="750.4" y="241.75" type="line"/>
      <point x="750.4" y="312.8" type="line"/>
      <point x="594" y="312.8" type="line"/>
      <point x="594" y="536.1" type="line"/>
    </contour>
  </outline>
</glyph>
<glyph name="poweron" format="2">
  <advance width="1200"/>
  <unicode hex="23FD"/>
  <outline>
    <contour>
      <point x="563.05" y="613.45" type="line"/>
      <point x="635.25" y="613.45" type="line"/>
      <point x="635.25" y="267.7" type="line"/>
      <point x="563.05" y="267.7" type="line"/>
    </contour>
    <contour>
      <point x="444.87" y="488.832" type="line"/>
      <point x="389.035" y="443.423"/>
      <point x="355" y="374.673"/>
      <point x="355" y="299.45" type="curve" smooth="yes"/>
      <point x="355" y="166.224"/>
      <point x="463.067" y="58"/>
      <point x="596.15" y="58" type="curve" smooth="yes"/>
      <point x="729.045" y="58"/>
      <point x="837" y="166.224"/>
      <point x="837" y="299.45" type="curve" smooth="yes"/>
      <point x="837" y="375.038"/>
      <point x="801.645" y="443.823"/>
      <point x="746.762" y="492.2" type="curve"/>
      <point x="789.7" y="546" type="line"/>
      <point x="863.8" y="487.75"/>
      <point x="909.6" y="398.15"/>
      <point x="909.6" y="299.45" type="curve" smooth="yes"/>
      <point x="909.6" y="126.45"/>
      <point x="769.15" y="-14"/>
      <point x="596.15" y="-14" type="curve" smooth="yes"/>
      <point x="423.1" y="-14"/>
      <point x="282.65" y="126.45"/>
      <point x="282.65" y="299.45" type="curve" smooth="yes"/>
      <point x="282.65" y="397.2"/>
      <point x="327.6" y="486.1"/>
      <point x="400.6" y="544.4" type="curve"/>
    </contour>
  </outline>
</glyph>
<glyph name="twocircle" format="2">
  <advance width="1200"/>
  <unicode hex="2461"/>
  <outline>
    <contour>
      <point x="157" y="299.6" type="curve" smooth="yes"/>
      <point x="157" y="55.35"/>
      <point x="355.3" y="-143"/>
      <point x="599.55" y="-143" type="curve" smooth="yes"/>
      <point x="843.85" y="-143"/>
      <point x="1042.2" y="55.35"/>
      <point x="1042.2" y="299.6" type="curve" smooth="yes"/>
      <point x="1042.2" y="543.9"/>
      <point x="843.85" y="742.25"/>
      <point x="599.55" y="742.25" type="curve" smooth="yes"/>
      <point x="355.3" y="742.25"/>
      <point x="157" y="543.9"/>
    </contour>
    <contour>
      <point x="216.25" y="299.6" type="curve" smooth="yes"/>
      <point x="216.25" y="511.2"/>
      <point x="388" y="682.95"/>
      <point x="599.55" y="682.95" type="curve" smooth="yes"/>
      <point x="811.15" y="682.95"/>
      <point x="982.95" y="511.2"/>
      <point x="982.95" y="299.6" type="curve" smooth="yes"/>
      <point x="982.95" y="88.05"/>
      <point x="811.15" y="-83.75"/>
      <point x="599.55" y="-83.75" type="curve" smooth="yes"/>
      <point x="388" y="-83.75"/>
      <point x="216.25" y="88.05"/>
    </contour>
    <contour>
      <point x="520.8" y="137.9" type="line"/>
      <point x="637.15" y="235.65" type="line" smooth="yes"/>
      <point x="704.1" y="291.9"/>
      <point x="753.35" y="343.75"/>
      <point x="753.35" y="420.1" type="curve" smooth="yes"/>
      <point x="753.35" y="502.05"/>
      <point x="696.95" y="561.15"/>
      <point x="597.25" y="561.15" type="curve" smooth="yes"/>
      <point x="499.45" y="561.15"/>
      <point x="450.6" y="504.8"/>
      <point x="431.35" y="444.25" type="curve"/>
      <point x="498.8" y="418.75" type="line"/>
      <point x="511.85" y="462.8"/>
      <point x="538.7" y="494.45"/>
      <point x="591.7" y="494.45" type="curve" smooth="yes"/>
      <point x="643.3" y="494.45"/>
      <point x="672.25" y="466.25"/>
      <point x="672.25" y="416" type="curve" smooth="yes"/>
      <point x="672.25" y="408.45" type="line" smooth="yes"/>
      <point x="672.25" y="365.05"/>
      <point x="643.65" y="326.15"/>
      <point x="594.45" y="283.15" type="curve" smooth="yes"/>
      <point x="437.5" y="146.15" type="line"/>
      <point x="437.5" y="72.55" type="line"/>
      <point x="769.2" y="72.55" type="line"/>
      <point x="769.2" y="137.9" type="line"/>
    </contour>
  </outline>
</glyph>
<glyph name="threecircle" format="2">
  <advance width="1200"/>
  <unicode hex="2462"/>
  <outline>
    <contour>
      <point x="157" y="299.6" type="curve" smooth="yes"/>
      <point x="157" y="55.35"/>
      <point x="355.3" y="-143"/>
      <point x="599.6" y="-143" type="curve" smooth="yes"/>
      <point x="843.9" y="-143"/>
      <point x="1042.2" y="55.35"/>
      <point x="1042.2" y="299.6" type="curve" smooth="yes"/>
      <point x="1042.2" y="543.9"/>
      <point x="843.9" y="742.2"/>
      <point x="599.6" y="742.2" type="curve" smooth="yes"/>
      <point x="355.3" y="742.2"/>
      <point x="157" y="543.9"/>
    </contour>
    <contour>
      <point x="216.25" y="299.6" type="curve" smooth="yes"/>
      <point x="216.25" y="511.2"/>
      <point x="388" y="682.95"/>
      <point x="599.6" y="682.95" type="curve" smooth="yes"/>
      <point x="811.2" y="682.95"/>
      <point x="982.95" y="511.2"/>
      <point x="982.95" y="299.6" type="curve" smooth="yes"/>
      <point x="982.95" y="88.05"/>
      <point x="811.2" y="-83.75"/>
      <point x="599.6" y="-83.75" type="curve" smooth="yes"/>
      <point x="388" y="-83.75"/>
      <point x="216.25" y="88.05"/>
    </contour>
    <contour>
      <point x="540.85" y="277.3" type="line"/>
      <point x="591.65" y="277.3" type="line" smooth="yes"/>
      <point x="653.9" y="277.3"/>
      <point x="687.75" y="250.2"/>
      <point x="687.75" y="202.15" type="curve" smooth="yes"/>
      <point x="687.75" y="196.7" type="line" smooth="yes"/>
      <point x="687.75" y="147.9"/>
      <point x="654.6" y="118.8"/>
      <point x="595.7" y="118.8" type="curve" smooth="yes"/>
      <point x="539.5" y="118.8"/>
      <point x="511.75" y="145.2"/>
      <point x="488.05" y="183.2" type="curve"/>
      <point x="431.9" y="139.8" type="line"/>
      <point x="461.65" y="96.55"/>
      <point x="507" y="55.3"/>
      <point x="595" y="55.3" type="curve" smooth="yes"/>
      <point x="699.25" y="55.3"/>
      <point x="767.55" y="110.7"/>
      <point x="767.55" y="193.35" type="curve" smooth="yes"/>
      <point x="767.55" y="261.7"/>
      <point x="720.2" y="300.3"/>
      <point x="666.1" y="310.45" type="curve"/>
      <point x="666.1" y="313.8" type="line"/>
      <point x="716.8" y="324.6"/>
      <point x="758.1" y="361.8"/>
      <point x="758.1" y="422.1" type="curve" smooth="yes"/>
      <point x="758.1" y="498.6"/>
      <point x="692.5" y="543.9"/>
      <point x="603.15" y="543.9" type="curve" smooth="yes"/>
      <point x="523.25" y="543.9"/>
      <point x="479.95" y="507.4"/>
      <point x="450.15" y="466.1" type="curve"/>
      <point x="501.6" y="422.1" type="line"/>
      <point x="523.25" y="458"/>
      <point x="555.05" y="480.35"/>
      <point x="600.45" y="480.35" type="curve" smooth="yes"/>
      <point x="647.8" y="480.35"/>
      <point x="678.95" y="456.65"/>
      <point x="678.95" y="413.3" type="curve" smooth="yes"/>
      <point x="678.95" y="408.6" type="line" smooth="yes"/>
      <point x="678.95" y="369.95"/>
      <point x="649.85" y="340.85"/>
      <point x="589.6" y="340.85" type="curve" smooth="yes"/>
      <point x="540.85" y="340.85" type="line"/>
    </contour>
  </outline>
</glyph>
<glyph name="fourcircle" format="2">
  <advance width="1200"/>
  <unicode hex="2463"/>
  <outline>
    <contour>
      <point x="157" y="299.6" type="curve" smooth="yes"/>
      <point x="157" y="55.35"/>
      <point x="355.3" y="-143"/>
      <point x="599.6" y="-143" type="curve" smooth="yes"/>
      <point x="843.85" y="-143"/>
      <point x="1042.2" y="55.35"/>
      <point x="1042.2" y="299.6" type="curve" smooth="yes"/>
      <point x="1042.2" y="543.9"/>
      <point x="843.85" y="742.2"/>
      <point x="599.6" y="742.2" type="curve" smooth="yes"/>
      <point x="355.3" y="742.2"/>
      <point x="157" y="543.9"/>
    </contour>
    <contour>
      <point x="216.25" y="299.6" type="curve" smooth="yes"/>
      <point x="216.25" y="511.2"/>
      <point x="388" y="682.95"/>
      <point x="599.6" y="682.95" type="curve" smooth="yes"/>
      <point x="811.15" y="682.95"/>
      <point x="982.95" y="511.2"/>
      <point x="982.95" y="299.6" type="curve" smooth="yes"/>
      <point x="982.95" y="88.05"/>
      <point x="811.15" y="-83.75"/>
      <point x="599.6" y="-83.75" type="curve" smooth="yes"/>
      <point x="388" y="-83.75"/>
      <point x="216.25" y="88.05"/>
    </contour>
    <contour>
      <point x="593.95" y="544.25" type="line"/>
      <point x="389.5" y="217.95" type="line"/>
      <point x="389.5" y="150.8" type="line"/>
      <point x="622" y="150.8" type="line"/>
      <point x="622" y="55.65" type="line"/>
      <point x="696.8" y="55.65" type="line"/>
      <point x="696.8" y="150.8" type="line"/>
      <point x="765.4" y="150.8" type="line"/>
      <point x="765.4" y="212.35" type="line"/>
      <point x="696.8" y="212.35" type="line"/>
      <point x="696.8" y="544.25" type="line"/>
    </contour>
    <contour>
      <point x="617.8" y="472.2" type="line"/>
      <point x="622" y="472.2" type="line"/>
      <point x="622" y="212.35" type="line"/>
      <point x="456.05" y="212.35" type="line"/>
    </contour>
  </outline>
</glyph>
<glyph name="sixcircle" format="2">
  <advance width="1200"/>
  <unicode hex="2465"/>
  <outline>
    <contour>
      <point x="157" y="299.6" type="curve" smooth="yes"/>
      <point x="157" y="55.35"/>
      <point x="355.3" y="-143"/>
      <point x="599.6" y="-143" type="curve" smooth="yes"/>
      <point x="843.85" y="-143"/>
      <point x="1042.2" y="55.35"/>
      <point x="1042.2" y="299.6" type="curve" smooth="yes"/>
      <point x="1042.2" y="543.9"/>
      <point x="843.85" y="742.2"/>
      <point x="599.6" y="742.2" type="curve" smooth="yes"/>
      <point x="355.3" y="742.2"/>
      <point x="157" y="543.9"/>
    </contour>
    <contour>
      <point x="216.25" y="299.6" type="curve" smooth="yes"/>
      <point x="216.25" y="511.2"/>
      <point x="388" y="682.95"/>
      <point x="599.6" y="682.95" type="curve" smooth="yes"/>
      <point x="811.15" y="682.95"/>
      <point x="982.95" y="511.2"/>
      <point x="982.95" y="299.6" type="curve" smooth="yes"/>
      <point x="982.95" y="88.05"/>
      <point x="811.15" y="-83.75"/>
      <point x="599.6" y="-83.75" type="curve" smooth="yes"/>
      <point x="388" y="-83.75"/>
      <point x="216.25" y="88.05"/>
    </contour>
    <contour>
      <point x="599.3" y="56.2" type="curve" smooth="yes"/>
      <point x="702.6" y="56.2"/>
      <point x="769.95" y="122.9"/>
      <point x="769.95" y="218.6" type="curve" smooth="yes"/>
      <point x="769.95" y="310.2"/>
      <point x="709.4" y="367.9"/>
      <point x="626.8" y="367.9" type="curve" smooth="yes"/>
      <point x="565.55" y="367.9"/>
      <point x="533.15" y="335.6"/>
      <point x="512.5" y="297.8" type="curve"/>
      <point x="507.7" y="299.15" type="line"/>
      <point x="531.75" y="403"/>
      <point x="595.15" y="466.3"/>
      <point x="706" y="544.8" type="curve"/>
      <point x="602.75" y="544.8" type="line"/>
      <point x="522.15" y="492.55"/>
      <point x="427.95" y="382.35"/>
      <point x="427.95" y="243.4" type="curve" smooth="yes"/>
      <point x="427.95" y="128.4"/>
      <point x="491.9" y="56.2"/>
    </contour>
    <contour>
      <point x="598.6" y="118.1" type="curve" smooth="yes"/>
      <point x="540.8" y="118.1"/>
      <point x="507" y="151.1"/>
      <point x="507" y="208.95" type="curve" smooth="yes"/>
      <point x="507" y="215.85" type="line" smooth="yes"/>
      <point x="507" y="273.7"/>
      <point x="540.8" y="306.75"/>
      <point x="598.6" y="306.75" type="curve" smooth="yes"/>
      <point x="657.1" y="306.75"/>
      <point x="690.9" y="273.7"/>
      <point x="690.9" y="215.85" type="curve" smooth="yes"/>
      <point x="690.9" y="208.95" type="line" smooth="yes"/>
      <point x="690.9" y="151.1"/>
      <point x="657.1" y="118.1"/>
    </contour>
  </outline>
</glyph>
<glyph name="sevencircle" format="2">
  <advance width="1200"/>
  <unicode hex="2466"/>
  <outline>
    <contour>
      <point x="157" y="299.6" type="curve" smooth="yes"/>
      <point x="157" y="55.35"/>
      <point x="355.3" y="-143"/>
      <point x="599.6" y="-143" type="curve" smooth="yes"/>
      <point x="843.85" y="-143"/>
      <point x="1042.2" y="55.35"/>
      <point x="1042.2" y="299.6" type="curve" smooth="yes"/>
      <point x="1042.2" y="543.9"/>
      <point x="843.85" y="742.2"/>
      <point x="599.6" y="742.2" type="curve" smooth="yes"/>
      <point x="355.3" y="742.2"/>
      <point x="157" y="543.9"/>
    </contour>
    <contour>
      <point x="216.25" y="299.6" type="curve" smooth="yes"/>
      <point x="216.25" y="511.2"/>
      <point x="388" y="682.95"/>
      <point x="599.6" y="682.95" type="curve" smooth="yes"/>
      <point x="811.15" y="682.95"/>
      <point x="982.95" y="511.2"/>
      <point x="982.95" y="299.6" type="curve" smooth="yes"/>
      <point x="982.95" y="88.05"/>
      <point x="811.15" y="-83.75"/>
      <point x="599.6" y="-83.75" type="curve" smooth="yes"/>
      <point x="388" y="-83.75"/>
      <point x="216.25" y="88.05"/>
    </contour>
    <contour>
      <point x="431.65" y="544.6" type="line"/>
      <point x="431.65" y="389.3" type="line"/>
      <point x="499.55" y="389.3" type="line"/>
      <point x="499.55" y="479.6" type="line"/>
      <point x="689.9" y="479.6" type="line"/>
      <point x="508.6" y="56" type="line"/>
      <point x="591.95" y="56" type="line"/>
      <point x="768.4" y="476.1" type="line"/>
      <point x="768.4" y="544.6" type="line"/>
    </contour>
  </outline>
</glyph>
<glyph name="heavyhorz" format="2">
  <advance width="1200"/>
  <unicode hex="2501"/>
  <outline>
    <contour>
      <point x="-34" y="232" type="line" name="hr00"/>
      <point x="1233" y="232" type="line"/>
      <point x="1233" y="368" type="line"/>
      <point x="-34" y="368" type="line"/>
    </contour>
  </outline>
</glyph>
<glyph name="heavyvert" format="2">
  <advance width="1200"/>
  <unicode hex="2503"/>
  <outline>
    <contour>
      <point x="532" y="-350" type="line" name="hr00"/>
      <point x="668" y="-350" type="line"/>
      <point x="668" y="950" type="line"/>
      <point x="532" y="950" type="line"/>
    </contour>
  </outline>
</glyph>
<glyph name="lighttrpldashhorz" format="2">
  <advance width="1200"/>
  <unicode hex="2504"/>
  <outline>
    <contour>
      <point x="48.8" y="266" type="line" name="hr00"/>
      <point x="250" y="266" type="line"/>
      <point x="250" y="334" type="line"/>
      <point x="48.8" y="334" type="line"/>
    </contour>
    <contour>
      <point x="349.05" y="266" type="line"/>
      <point x="550.2" y="266" type="line"/>
      <point x="550.2" y="334" type="line"/>
      <point x="349.05" y="334" type="line"/>
    </contour>
    <contour>
      <point x="649.3" y="266" type="line"/>
      <point x="850.45" y="266" type="line"/>
      <point x="850.45" y="334" type="line"/>
      <point x="649.3" y="334" type="line"/>
    </contour>
    <contour>
      <point x="949.55" y="266" type="line"/>
      <point x="1151.7" y="266" type="line"/>
      <point x="1151.7" y="334" type="line"/>
      <point x="949.55" y="334" type="line"/>
    </contour>
  </outline>
  <guideline angle="90" x="300" y="0"/>
  <guideline angle="90" x="900" y="0"/>
</glyph>
<glyph name="lighttrpldashvert" format="2">
  <advance width="1200"/>
  <unicode hex="2506"/>
  <outline>
    <contour>
      <point x="566" y="897" type="line"/>
      <point x="634" y="897" type="line"/>
      <point x="634" y="677" type="line"/>
      <point x="566" y="677" type="line"/>
    </contour>
    <contour>
      <point x="566" y="572" type="line" name="hr00"/>
      <point x="634" y="572" type="line"/>
      <point x="634" y="352" type="line"/>
      <point x="566" y="352" type="line"/>
    </contour>
    <contour>
      <point x="566" y="247" type="line"/>
      <point x="634" y="247" type="line"/>
      <point x="634" y="27" type="line"/>
      <point x="566" y="27" type="line"/>
    </contour>
    <contour>
      <point x="566" y="-78" type="line"/>
      <point x="634" y="-78" type="line"/>
      <point x="634" y="-298" type="line"/>
      <point x="566" y="-298" type="line"/>
    </contour>
  </outline>
</glyph>
<glyph name="lightquaddashhorz" format="2">
  <advance width="1200"/>
  <unicode hex="2508"/>
  <outline>
    <contour>
      <point x="268.15" y="266.05" type="line" name="hr00"/>
      <point x="268.15" y="333.95" type="line"/>
      <point x="452.15" y="333.95" type="line"/>
      <point x="452.15" y="266.05" type="line"/>
    </contour>
    <contour>
      <point x="508.15" y="266.05" type="line"/>
      <point x="508.15" y="333.95" type="line"/>
      <point x="692.15" y="333.95" type="line"/>
      <point x="692.15" y="266.05" type="line"/>
    </contour>
    <contour>
      <point x="748.2" y="266.05" type="line"/>
      <point x="748.2" y="333.95" type="line"/>
      <point x="932.2" y="333.95" type="line"/>
      <point x="932.2" y="266.05" type="line"/>
    </contour>
    <contour>
      <point x="988.2" y="266.05" type="line"/>
      <point x="988.2" y="333.95" type="line"/>
      <point x="1172.2" y="333.95" type="line"/>
      <point x="1172.2" y="266.05" type="line"/>
    </contour>
    <contour>
      <point x="28" y="266.05" type="line"/>
      <point x="28" y="333.95" type="line"/>
      <point x="212" y="333.95" type="line"/>
      <point x="212" y="266.05" type="line"/>
    </contour>
  </outline>
  <guideline angle="90" x="300" y="0"/>
  <guideline angle="90" x="900" y="0"/>
</glyph>
<glyph name="lightquaddashvert" format="2">
  <advance width="1200"/>
  <unicode hex="250A"/>
  <outline>
    <contour>
      <point x="566" y="918" type="line"/>
      <point x="634" y="918" type="line"/>
      <point x="634" y="721" type="line"/>
      <point x="566" y="721" type="line"/>
    </contour>
    <contour>
      <point x="566" y="658" type="line" name="hr00"/>
      <point x="634" y="658" type="line"/>
      <point x="634" y="461" type="line"/>
      <point x="566" y="461" type="line"/>
    </contour>
    <contour>
      <point x="566" y="397" type="line"/>
      <point x="634" y="397" type="line"/>
      <point x="634" y="200" type="line"/>
      <point x="566" y="200" type="line"/>
    </contour>
    <contour>
      <point x="566" y="136" type="line"/>
      <point x="634" y="136" type="line"/>
      <point x="634" y="-61" type="line"/>
      <point x="566" y="-61" type="line"/>
    </contour>
    <contour>
      <point x="566" y="-121" type="line"/>
      <point x="634" y="-121" type="line"/>
      <point x="634" y="-318" type="line"/>
      <point x="566" y="-318" type="line"/>
    </contour>
  </outline>
</glyph>
<glyph name="dnlightleftheavy" format="2">
  <advance width="1200"/>
  <unicode hex="2511"/>
  <outline>
    <contour>
      <point x="-34" y="232" type="line" name="hr00"/>
      <point x="566" y="232" type="line"/>
      <point x="566" y="-350" type="line"/>
      <point x="634" y="-350" type="line"/>
      <point x="634" y="368" type="line"/>
      <point x="-34" y="368" type="line"/>
    </contour>
  </outline>
</glyph>
<glyph name="lightupleft" format="2">
  <advance width="1200"/>
  <unicode hex="2518"/>
  <outline>
    <contour>
      <point x="-34" y="266" type="line" name="hr00"/>
      <point x="634" y="266" type="line"/>
      <point x="634" y="950" type="line"/>
      <point x="566" y="950" type="line"/>
      <point x="566" y="334" type="line"/>
      <point x="-34" y="334" type="line"/>
    </contour>
  </outline>
</glyph>
<glyph name="upheavyleftdnlight" format="2">
  <advance width="1200"/>
  <unicode hex="2526"/>
  <outline>
    <contour>
      <point x="-34" y="266" type="line"/>
      <point x="566" y="266" type="line"/>
      <point x="566" y="-350" type="line"/>
      <point x="634" y="-350" type="line"/>
      <point x="634" y="266" type="line"/>
      <point x="668" y="266" type="line" name="hr01"/>
      <point x="668" y="950" type="line"/>
      <point x="532" y="950" type="line"/>
      <point x="532" y="334" type="line"/>
      <point x="-34" y="334" type="line"/>
    </contour>
  </outline>
</glyph>
<glyph name="heavyvertleft" format="2">
  <advance width="1200"/>
  <unicode hex="252B"/>
  <outline>
    <contour>
      <point x="-34" y="232" type="line" name="hr00"/>
      <point x="532" y="232" type="line"/>
      <point x="532" y="-350" type="line"/>
      <point x="668" y="-350" type="line"/>
      <point x="668" y="950" type="line"/>
      <point x="532" y="950" type="line"/>
      <point x="532" y="368" type="line"/>
      <point x="-34" y="368" type="line"/>
    </contour>
  </outline>
</glyph>
<glyph name="dnheavyhorzlight" format="2">
  <advance width="1200"/>
  <unicode hex="2530"/>
  <outline>
    <contour>
      <point x="-34" y="266" type="line" name="hr00"/>
      <point x="532" y="266" type="line"/>
      <point x="532" y="-350" type="line"/>
      <point x="668" y="-350" type="line"/>
      <point x="668" y="266" type="line"/>
      <point x="1234" y="266" type="line"/>
      <point x="1234" y="334" type="line"/>
      <point x="-34" y="334" type="line"/>
    </contour>
  </outline>
</glyph>
<glyph name="lightuphorz" format="2">
  <advance width="1200"/>
  <unicode hex="2534"/>
  <outline>
    <contour>
      <point x="-34" y="266" type="line" name="hr00"/>
      <point x="1234" y="266" type="line"/>
      <point x="1234" y="334" type="line"/>
      <point x="634" y="334" type="line"/>
      <point x="634" y="950" type="line"/>
      <point x="566" y="950" type="line"/>
      <point x="566" y="334" type="line"/>
      <point x="-34" y="334" type="line"/>
    </contour>
  </outline>
</glyph>
<glyph name="rightheavyleftuplight" format="2">
  <advance width="1200"/>
  <unicode hex="2536"/>
  <outline>
    <contour>
      <point x="-33" y="266" type="line"/>
      <point x="566" y="266" type="line"/>
      <point x="566" y="232" type="line" name="hr01"/>
      <point x="1233.95" y="232" type="line"/>
      <point x="1233.95" y="368" type="line"/>
      <point x="634" y="368" type="line"/>
      <point x="634" y="950" type="line"/>
      <point x="566" y="950" type="line"/>
      <point x="566" y="334" type="line" name="hr02"/>
      <point x="-33" y="334" type="line"/>
    </contour>
  </outline>
</glyph>
<glyph name="leftheavyrightvertlight" format="2">
  <advance width="1200"/>
  <unicode hex="253D"/>
  <outline>
    <contour>
      <point x="-34" y="232" type="line"/>
      <point x="566" y="232" type="line"/>
      <point x="566" y="-350" type="line"/>
      <point x="634" y="-350" type="line"/>
      <point x="634" y="266" type="line" name="hr01"/>
      <point x="1234" y="266" type="line"/>
      <point x="1234" y="334" type="line"/>
      <point x="634" y="334" type="line"/>
      <point x="634" y="950" type="line"/>
      <point x="566" y="950" type="line"/>
      <point x="566" y="368" type="line" name="hr02"/>
      <point x="-34" y="368" type="line"/>
    </contour>
  </outline>
</glyph>
<glyph name="vertlighthorzheavy" format="2">
  <advance width="1200"/>
  <unicode hex="253F"/>
  <outline>
    <contour>
      <point x="-34" y="232" type="line" name="hr00"/>
      <point x="566" y="232" type="line"/>
      <point x="566" y="-350" type="line"/>
      <point x="634" y="-350" type="line"/>
      <point x="634" y="232" type="line"/>
      <point x="1234" y="232" type="line"/>
      <point x="1234" y="368" type="line"/>
      <point x="634" y="368" type="line"/>
      <point x="634" y="950" type="line"/>
      <point x="566" y="950" type="line"/>
      <point x="566" y="368" type="line"/>
      <point x="-34" y="368" type="line"/>
    </contour>
  </outline>
</glyph>
<glyph name="heavyverthorz" format="2">
  <advance width="1200"/>
  <unicode hex="254B"/>
  <outline>
    <contour>
      <point x="-34" y="232" type="line" name="hr00"/>
      <point x="532" y="232" type="line"/>
      <point x="532" y="-350" type="line"/>
      <point x="668" y="-350" type="line"/>
      <point x="668" y="232" type="line"/>
      <point x="1233.85" y="232" type="line"/>
      <point x="1233.85" y="368" type="line"/>
      <point x="668" y="368" type="line"/>
      <point x="668" y="950" type="line"/>
      <point x="532" y="950" type="line"/>
      <point x="532" y="368" type="line"/>
      <point x="-34" y="368" type="line"/>
    </contour>
  </outline>
</glyph>
<glyph name="lightdbldashvert" format="2">
  <advance width="1200"/>
  <unicode hex="254E"/>
  <outline>
    <contour>
      <point x="566" y="438" type="line" name="hr00"/>
      <point x="634" y="438" type="line"/>
      <point x="634" y="713" type="line"/>
      <point x="566" y="713" type="line"/>
    </contour>
    <contour>
      <point x="566" y="-113" type="line"/>
      <point x="634" y="-113" type="line"/>
      <point x="634" y="163" type="line"/>
      <point x="566" y="163" type="line"/>
    </contour>
  </outline>
</glyph>
<glyph name="heavydbldashvert" format="2">
  <advance width="1200"/>
  <unicode hex="254F"/>
  <outline>
    <contour>
      <point x="532" y="438" type="line" name="hr00"/>
      <point x="668" y="438" type="line"/>
      <point x="668" y="713" type="line"/>
      <point x="532" y="713" type="line"/>
    </contour>
    <contour>
      <point x="532" y="-113" type="line"/>
      <point x="668" y="-113" type="line"/>
      <point x="668" y="163" type="line"/>
      <point x="532" y="163" type="line"/>
    </contour>
  </outline>
</glyph>
<glyph name="dndblleftsng" format="2">
  <advance width="1200"/>
  <unicode hex="2556"/>
  <outline>
    <contour>
      <point x="-33.25" y="266" type="line" name="hr00"/>
      <point x="498" y="266" type="line"/>
      <point x="498" y="-350" type="line"/>
      <point x="566" y="-350" type="line"/>
      <point x="566" y="266" type="line"/>
      <point x="634" y="266" type="line"/>
      <point x="634" y="-350" type="line"/>
      <point x="702" y="-350" type="line"/>
      <point x="702" y="334" type="line"/>
      <point x="-33.25" y="334" type="line"/>
    </contour>
  </outline>
</glyph>
<glyph name="updblrightsng" format="2">
  <advance width="1200"/>
  <unicode hex="2559"/>
  <outline>
    <contour>
      <point x="498" y="266" type="line" name="hr00"/>
      <point x="1233" y="266" type="line"/>
      <point x="1233" y="334" type="line"/>
      <point x="702" y="334" type="line"/>
      <point x="702" y="950" type="line"/>
      <point x="634" y="950" type="line"/>
      <point x="634" y="334" type="line"/>
      <point x="566" y="334" type="line"/>
      <point x="566" y="950" type="line"/>
      <point x="498" y="950" type="line"/>
    </contour>
  </outline>
</glyph>
<glyph name="upsngleftdbl" format="2">
  <advance width="1200"/>
  <unicode hex="255B"/>
  <outline>
    <contour>
      <point x="-33" y="198" type="line" name="hr00"/>
      <point x="634" y="198" type="line"/>
      <point x="634" y="950" type="line"/>
      <point x="566" y="950" type="line"/>
      <point x="566" y="402" type="line"/>
      <point x="-33" y="402" type="line"/>
      <point x="-33" y="334" type="line"/>
      <point x="566" y="334" type="line"/>
      <point x="566" y="266" type="line"/>
      <point x="-33" y="266" type="line"/>
    </contour>
  </outline>
</glyph>
<glyph name="dblvertright" format="2">
  <advance width="1200"/>
  <unicode hex="2560"/>
  <outline>
    <contour>
      <point x="498" y="-350" type="line" name="hr00"/>
      <point x="566" y="-350" type="line"/>
      <point x="566" y="950" type="line"/>
      <point x="498" y="950" type="line"/>
    </contour>
    <contour>
      <point x="634" y="334" type="line"/>
      <point x="1234" y="334" type="line"/>
      <point x="1234" y="402" type="line"/>
      <point x="702" y="402" type="line"/>
      <point x="702" y="950" type="line"/>
      <point x="634" y="950" type="line"/>
    </contour>
    <contour>
      <point x="634" y="-350" type="line"/>
      <point x="702" y="-350" type="line"/>
      <point x="702" y="198" type="line"/>
      <point x="1234" y="198" type="line"/>
      <point x="1234" y="266" type="line"/>
      <point x="634" y="266" type="line"/>
    </contour>
  </outline>
</glyph>
<glyph name="upsnghorzdbl" format="2">
  <advance width="1200"/>
  <unicode hex="2567"/>
  <outline>
    <contour>
      <point x="-33" y="334" type="line" name="hr00"/>
      <point x="1234" y="334" type="line"/>
      <point x="1234" y="402" type="line"/>
      <point x="634" y="402" type="line"/>
      <point x="634" y="950" type="line"/>
      <point x="566" y="950" type="line"/>
      <point x="566" y="402" type="line"/>
      <point x="-33" y="402" type="line"/>
    </contour>
    <contour>
      <point x="-33" y="198" type="line"/>
      <point x="1234" y="198" type="line"/>
      <point x="1234" y="266" type="line"/>
      <point x="-33" y="266" type="line"/>
    </contour>
  </outline>
</glyph>
<glyph name="lightarcdnleft" format="2">
  <advance width="1200"/>
  <unicode hex="256E"/>
  <outline>
    <contour>
      <point x="634" y="-350" type="line" name="hr00"/>
      <point x="634" y="0" type="line" smooth="yes"/>
      <point x="634" y="199"/>
      <point x="499" y="334"/>
      <point x="300" y="334" type="curve" smooth="yes"/>
      <point x="-34" y="334" type="line"/>
      <point x="-34" y="266" type="line"/>
      <point x="300" y="266" type="line" smooth="yes"/>
      <point x="462" y="266"/>
      <point x="566" y="162"/>
      <point x="566" y="0" type="curve" smooth="yes"/>
      <point x="566" y="-350" type="line"/>
    </contour>
  </outline>
</glyph>
<glyph name="lightarcupleft" format="2">
  <advance width="1200"/>
  <unicode hex="256F"/>
  <outline>
    <contour>
      <point x="634" y="950" type="line" name="hr00"/>
      <point x="566" y="950" type="line"/>
      <point x="566" y="600" type="line" smooth="yes"/>
      <point x="566" y="438"/>
      <point x="462" y="334"/>
      <point x="300" y="334" type="curve" smooth="yes"/>
      <point x="-33.1" y="334" type="line"/>
      <point x="-33.1" y="266" type="line"/>
      <point x="300" y="266" type="line" smooth="yes"/>
      <point x="499" y="266"/>
      <point x="634" y="401"/>
      <point x="634" y="600" type="curve" smooth="yes"/>
    </contour>
  </outline>
</glyph>
<glyph name="lightdiagcross" format="2">
  <advance width="1200"/>
  <unicode hex="2573"/>
  <outline>
    <contour>
      <point x="39.6" y="850" type="line" name="hr00"/>
      <point x="0.599998" y="850" type="line"/>
      <point x="0.599998" y="779" type="line"/>
      <point x="540.45" y="300.15" type="line"/>
      <point x="0.499962" y="-179" type="line" name="hr00.1"/>
      <point x="0.499962" y="-250" type="line"/>
      <point x="39.5" y="-250" type="line"/>
      <point x="600" y="247.35" type="line"/>
      <point x="1160.75" y="-250" type="line"/>
      <point x="1199.75" y="-250" type="line"/>
      <point x="1199.75" y="-179" type="line"/>
      <point x="659.5" y="300.15" type="line"/>
      <point x="1199.1" y="779" type="line"/>
      <point x="1199.1" y="850" type="line"/>
      <point x="1160.1" y="850" type="line"/>
      <point x="600" y="352.95" type="line"/>
    </contour>
  </outline>
  <guideline angle="90" x="300" y="0"/>
  <guideline angle="90" x="900" y="0"/>
</glyph>
<glyph name="lightleft" format="2">
  <advance width="1200"/>
  <unicode hex="2574"/>
  <outline>
    <contour>
      <point x="-34.2" y="266" type="line" name="hr00"/>
      <point x="634" y="266" type="line"/>
      <point x="634" y="334" type="line"/>
      <point x="-34.2" y="334" type="line"/>
    </contour>
  </outline>
</glyph>
<glyph name="heavyleft" format="2">
  <advance width="1200"/>
  <unicode hex="2578"/>
  <outline>
    <contour>
      <point x="-34.05" y="232" type="line" name="hr00"/>
      <point x="634" y="232" type="line"/>
      <point x="634" y="368" type="line"/>
      <point x="-34.05" y="368" type="line"/>
    </contour>
  </outline>
</glyph>
<glyph name="lowerOneEighthBlock" format="2">
  <advance width="1200"/>
  <unicode hex="2581"/>
  <outline>
    <contour>
      <point x="0.9" y="-350" type="line" name="hr00"/>
      <point x="1199.6" y="-350" type="line"/>
      <point x="1199.6" y="-188" type="line"/>
      <point x="0.9" y="-188" type="line"/>
    </contour>
  </outline>
</glyph>
<glyph name="lowerOneQuarterBlock" format="2">
  <advance width="1200"/>
  <unicode hex="2582"/>
  <outline>
    <contour>
      <point x="0.7" y="-350" type="line" name="hr00"/>
      <point x="1199.2" y="-350" type="line"/>
      <point x="1199.2" y="-25" type="line"/>
      <point x="0.7" y="-25" type="line"/>
    </contour>
  </outline>
</glyph>
<glyph name="leftThreeEighthsBlock" format="2">
  <advance width="1200"/>
  <unicode hex="258D"/>
  <outline>
    <contour>
      <point x="1" y="-350" type="line" name="hr00"/>
      <point x="825" y="-350" type="line"/>
      <point x="825" y="950" type="line"/>
      <point x="1" y="950" type="line"/>
    </contour>
  </outline>
</glyph>
<glyph name="ltshade" format="2">
  <advance width="1200"/>
  <unicode hex="2591"/>
  <outline>
    <contour>
      <point x="464.7" y="950" type="curve" smooth="yes" name="hr00"/>
      <point x="464.7" y="930"/>
      <point x="480.7" y="914"/>
      <point x="500.7" y="914" type="curve" smooth="yes"/>
      <point x="520.7" y="914"/>
      <point x="536.7" y="930"/>
      <point x="536.7" y="950" type="curve" smooth="yes"/>
      <point x="536.7" y="970"/>
      <point x="520.7" y="986"/>
      <point x="500.7" y="986" type="curve" smooth="yes"/>
      <point x="480.7" y="986"/>
      <point x="464.7" y="970"/>
    </contour>
    <contour>
      <point x="264.7" y="950" type="curve" smooth="yes"/>
      <point x="264.7" y="930"/>
      <point x="280.7" y="914"/>
      <point x="300.7" y="914" type="curve" smooth="yes"/>
      <point x="320.7" y="914"/>
      <point x="336.7" y="930"/>
      <point x="336.7" y="950" type="curve" smooth="yes"/>
      <point x="336.7" y="970"/>
      <point x="320.7" y="986"/>
      <point x="300.7" y="986" type="curve" smooth="yes"/>
      <point x="280.7" y="986"/>
      <point x="264.7" y="970"/>
    </contour>
    <contour>
      <point x="64.7" y="950" type="curve" smooth="yes"/>
      <point x="64.7" y="930"/>
      <point x="80.7" y="914"/>
      <point x="100.7" y="914" type="curve" smooth="yes"/>
      <point x="120.7" y="914"/>
      <point x="136.7" y="930"/>
      <point x="136.7" y="950" type="curve" smooth="yes"/>
      <point x="136.7" y="970"/>
      <point x="120.7" y="986"/>
      <point x="100.7" y="986" type="curve" smooth="yes"/>
      <point x="80.7" y="986"/>
      <point x="64.7" y="970"/>
    </contour>
    <contour>
      <point x="864.7" y="950" type="curve" smooth="yes" name="hr00"/>
      <point x="864.7" y="930"/>
      <point x="880.7" y="914"/>
      <point x="900.7" y="914" type="curve" smooth="yes"/>
      <point x="920.7" y="914"/>
      <point x="936.7" y="930"/>
      <point x="936.7" y="950" type="curve" smooth="yes"/>
      <point x="936.7" y="970"/>
      <point x="920.7" y="986"/>
      <point x="900.7" y="986" type="curve" smooth="yes"/>
      <point x="880.7" y="986"/>
      <point x="864.7" y="970"/>
    </contour>
    <contour>
      <point x="664.7" y="950" type="curve" smooth="yes"/>
      <point x="664.7" y="930"/>
      <point x="680.7" y="914"/>
      <point x="700.7" y="914" type="curve" smooth="yes"/>
      <point x="720.7" y="914"/>
      <point x="736.7" y="930"/>
      <point x="736.7" y="950" type="curve" smooth="yes"/>
      <point x="736.7" y="970"/>
      <point x="720.7" y="986"/>
      <point x="700.7" y="986" type="curve" smooth="yes"/>
      <point x="680.7" y="986"/>
      <point x="664.7" y="970"/>
    </contour>
    <contour>
      <point x="1064.7" y="950" type="curve" smooth="yes" name="hr00"/>
      <point x="1064.7" y="930"/>
      <point x="1080.7" y="914"/>
      <point x="1100.7" y="914" type="curve" smooth="yes"/>
      <point x="1120.7" y="914"/>
      <point x="1136.7" y="930"/>
      <point x="1136.7" y="950" type="curve" smooth="yes"/>
      <point x="1136.7" y="970"/>
      <point x="1120.7" y="986"/>
      <point x="1100.7" y="986" type="curve" smooth="yes"/>
      <point x="1080.7" y="986"/>
      <point x="1064.7" y="970"/>
    </contour>
    <contour>
      <point x="376.7" y="857" type="curve" smooth="yes"/>
      <point x="376.7" y="844"/>
      <point x="387.7" y="833"/>
      <point x="400.7" y="833" type="curve" smooth="yes"/>
      <point x="413.7" y="833"/>
      <point x="424.7" y="844"/>
      <point x="424.7" y="857" type="curve" smooth="yes"/>
      <point x="424.7" y="870"/>
      <point x="413.7" y="881"/>
      <point x="400.7" y="881" type="curve" smooth="yes"/>
      <point x="387.7" y="881"/>
      <point x="376.7" y="870"/>
    </contour>
    <contour>
      <point x="176.7" y="857" type="curve" smooth="yes"/>
      <point x="176.7" y="844"/>
      <point x="187.7" y="833"/>
      <point x="200.7" y="833" type="curve" smooth="yes"/>
      <point x="213.7" y="833"/>
      <point x="224.7" y="844"/>
      <point x="224.7" y="857" type="curve" smooth="yes"/>
      <point x="224.7" y="870"/>
      <point x="213.7" y="881"/>
      <point x="200.7" y="881" type="curve" smooth="yes"/>
      <point x="187.7" y="881"/>
      <point x="176.7" y="870"/>
    </contour>
    <contour>
      <point x="-23.3" y="857" type="curve" smooth="yes"/>
      <point x="-23.3" y="844"/>
      <point x="-12.3" y="833"/>
      <point x="0.700001" y="833" type="curve"/>
      <point x="2.65" y="833.1" type="line"/>
      <point x="14.75" y="834.1"/>
      <point x="24.7" y="844.65"/>
      <point x="24.7" y="857" type="curve" smooth="yes"/>
      <point x="24.7" y="870"/>
      <point x="13.7" y="881"/>
      <point x="0.700001" y="881" type="curve"/>
      <point x="-1.25" y="880.9" type="line"/>
      <point x="-13.35" y="879.9"/>
      <point x="-23.3" y="869.35"/>
    </contour>
    <contour>
      <point x="576.7" y="857" type="curve" smooth="yes"/>
      <point x="576.7" y="844"/>
      <point x="587.7" y="833"/>
      <point x="600.7" y="833" type="curve" smooth="yes"/>
      <point x="613.7" y="833"/>
      <point x="624.7" y="844"/>
      <point x="624.7" y="857" type="curve" smooth="yes"/>
      <point x="624.7" y="870"/>
      <point x="613.7" y="881"/>
      <point x="600.7" y="881" type="curve" smooth="yes"/>
      <point x="587.7" y="881"/>
      <point x="576.7" y="870"/>
    </contour>
    <contour>
      <point x="776.7" y="857" type="curve" smooth="yes"/>
      <point x="776.7" y="844"/>
      <point x="787.7" y="833"/>
      <point x="800.7" y="833" type="curve" smooth="yes"/>
      <point x="813.7" y="833"/>
      <point x="824.7" y="844"/>
      <point x="824.7" y="857" type="curve" smooth="yes"/>
      <point x="824.7" y="870"/>
      <point x="813.7" y="881"/>
      <point x="800.7" y="881" type="curve" smooth="yes"/>
      <point x="787.7" y="881"/>
      <point x="776.7" y="870"/>
    </contour>
    <contour>
      <point x="976.7" y="857" type="curve" smooth="yes"/>
      <point x="976.7" y="844"/>
      <point x="987.7" y="833"/>
      <point x="1000.7" y="833" type="curve" smooth="yes"/>
      <point x="1013.7" y="833"/>
      <point x="1024.7" y="844"/>
      <point x="1024.7" y="857" type="curve" smooth="yes"/>
      <point x="1024.7" y="870"/>
      <point x="1013.7" y="881"/>
      <point x="1000.7" y="881" type="curve" smooth="yes"/>
      <point x="987.7" y="881"/>
      <point x="976.7" y="870"/>
    </contour>
    <contour>
      <point x="464.7" y="764" type="curve" smooth="yes"/>
      <point x="464.7" y="744"/>
      <point x="480.7" y="728"/>
      <point x="500.7" y="728" type="curve" smooth="yes"/>
      <point x="520.7" y="728"/>
      <point x="536.7" y="744"/>
      <point x="536.7" y="764" type="curve" smooth="yes"/>
      <point x="536.7" y="784"/>
      <point x="520.7" y="800"/>
      <point x="500.7" y="800" type="curve" smooth="yes"/>
      <point x="480.7" y="800"/>
      <point x="464.7" y="784"/>
    </contour>
    <contour>
      <point x="64.7" y="764" type="curve" smooth="yes"/>
      <point x="64.7" y="744"/>
      <point x="80.7" y="728"/>
      <point x="100.7" y="728" type="curve" smooth="yes"/>
      <point x="120.7" y="728"/>
      <point x="136.7" y="744"/>
      <point x="136.7" y="764" type="curve" smooth="yes"/>
      <point x="136.7" y="784"/>
      <point x="120.7" y="800"/>
      <point x="100.7" y="800" type="curve" smooth="yes"/>
      <point x="80.7" y="800"/>
      <point x="64.7" y="784"/>
    </contour>
    <contour>
      <point x="264.7" y="764" type="curve" smooth="yes"/>
      <point x="264.7" y="744"/>
      <point x="280.7" y="728"/>
      <point x="300.7" y="728" type="curve" smooth="yes"/>
      <point x="320.7" y="728"/>
      <point x="336.7" y="744"/>
      <point x="336.7" y="764" type="curve" smooth="yes"/>
      <point x="336.7" y="784"/>
      <point x="320.7" y="800"/>
      <point x="300.7" y="800" type="curve" smooth="yes"/>
      <point x="280.7" y="800"/>
      <point x="264.7" y="784"/>
    </contour>
    <contour>
      <point x="864.7" y="764" type="curve" smooth="yes"/>
      <point x="864.7" y="744"/>
      <point x="880.7" y="728"/>
      <point x="900.7" y="728" type="curve" smooth="yes"/>
      <point x="920.7" y="728"/>
      <point x="936.7" y="744"/>
      <point x="936.7" y="764" type="curve" smooth="yes"/>
      <point x="936.7" y="784"/>
      <point x="920.7" y="800"/>
      <point x="900.7" y="800" type="curve" smooth="yes"/>
      <point x="880.7" y="800"/>
      <point x="864.7" y="784"/>
    </contour>
    <contour>
      <point x="664.7" y="764" type="curve" smooth="yes"/>
      <point x="664.7" y="744"/>
      <point x="680.7" y="728"/>
      <point x="700.7" y="728" type="curve" smooth="yes"/>
      <point x="720.7" y="728"/>
      <point x="736.7" y="744"/>
      <point x="736.7" y="764" type="curve" smooth="yes"/>
      <point x="736.7" y="784"/>
      <point x="720.7" y="800"/>
      <point x="700.7" y="800" type="curve" smooth="yes"/>
      <point x="680.7" y="800"/>
      <point x="664.7" y="784"/>
    </contour>
    <contour>
      <point x="1064.7" y="764" type="curve" smooth="yes"/>
      <point x="1064.7" y="744"/>
      <point x="1080.7" y="728"/>
      <point x="1100.7" y="728" type="curve" smooth="yes"/>
      <point x="1120.7" y="728"/>
      <point x="1136.7" y="744"/>
      <point x="1136.7" y="764" type="curve" smooth="yes"/>
      <point x="1136.7" y="784"/>
      <point x="1120.7" y="800"/>
      <point x="1100.7" y="800" type="curve" smooth="yes"/>
      <point x="1080.7" y="800"/>
      <point x="1064.7" y="784"/>
    </contour>
    <contour>
      <point x="376.7" y="671" type="curve" smooth="yes"/>
      <point x="376.7" y="658"/>
      <point x="387.7" y="647"/>
      <point x="400.7" y="647" type="curve" smooth="yes"/>
      <point x="413.7" y="647"/>
      <point x="424.7" y="658"/>
      <point x="424.7" y="671" type="curve" smooth="yes"/>
      <point x="424.7" y="684"/>
      <point x="413.7" y="695"/>
      <point x="400.7" y="695" type="curve" smooth="yes"/>
      <point x="387.7" y="695"/>
      <point x="376.7" y="684"/>
    </contour>
    <contour>
      <point x="-23.3" y="671" type="curve" smooth="yes"/>
      <point x="-23.3" y="658"/>
      <point x="-12.3" y="647"/>
      <point x="0.700001" y="647" type="curve"/>
      <point x="2.65" y="647.1" type="line"/>
      <point x="14.75" y="648.1"/>
      <point x="24.7" y="658.65"/>
      <point x="24.7" y="671" type="curve" smooth="yes"/>
      <point x="24.7" y="684"/>
      <point x="13.7" y="695"/>
      <point x="0.700001" y="695" type="curve"/>
      <point x="-1.25" y="694.9" type="line"/>
      <point x="-13.35" y="693.9"/>
      <point x="-23.3" y="683.35"/>
    </contour>
    <contour>
      <point x="176.7" y="671" type="curve" smooth="yes"/>
      <point x="176.7" y="658"/>
      <point x="187.7" y="647"/>
      <point x="200.7" y="647" type="curve" smooth="yes"/>
      <point x="213.7" y="647"/>
      <point x="224.7" y="658"/>
      <point x="224.7" y="671" type="curve" smooth="yes"/>
      <point x="224.7" y="684"/>
      <point x="213.7" y="695"/>
      <point x="200.7" y="695" type="curve" smooth="yes"/>
      <point x="187.7" y="695"/>
      <point x="176.7" y="684"/>
    </contour>
    <contour>
      <point x="976.7" y="671" type="curve" smooth="yes"/>
      <point x="976.7" y="658"/>
      <point x="987.7" y="647"/>
      <point x="1000.7" y="647" type="curve" smooth="yes"/>
      <point x="1013.7" y="647"/>
      <point x="1024.7" y="658"/>
      <point x="1024.7" y="671" type="curve" smooth="yes"/>
      <point x="1024.7" y="684"/>
      <point x="1013.7" y="695"/>
      <point x="1000.7" y="695" type="curve" smooth="yes"/>
      <point x="987.7" y="695"/>
      <point x="976.7" y="684"/>
    </contour>
    <contour>
      <point x="776.7" y="671" type="curve" smooth="yes"/>
      <point x="776.7" y="658"/>
      <point x="787.7" y="647"/>
      <point x="800.7" y="647" type="curve" smooth="yes"/>
      <point x="813.7" y="647"/>
      <point x="824.7" y="658"/>
      <point x="824.7" y="671" type="curve" smooth="yes"/>
      <point x="824.7" y="684"/>
      <point x="813.7" y="695"/>
      <point x="800.7" y="695" type="curve" smooth="yes"/>
      <point x="787.7" y="695"/>
      <point x="776.7" y="684"/>
    </contour>
    <contour>
      <point x="576.7" y="671" type="curve" smooth="yes"/>
      <point x="576.7" y="658"/>
      <point x="587.7" y="647"/>
      <point x="600.7" y="647" type="curve" smooth="yes"/>
      <point x="613.7" y="647"/>
      <point x="624.7" y="658"/>
      <point x="624.7" y="671" type="curve" smooth="yes"/>
      <point x="624.7" y="684"/>
      <point x="613.7" y="695"/>
      <point x="600.7" y="695" type="curve" smooth="yes"/>
      <point x="587.7" y="695"/>
      <point x="576.7" y="684"/>
    </contour>
    <contour>
      <point x="464.7" y="578" type="curve" smooth="yes"/>
      <point x="464.7" y="558"/>
      <point x="480.7" y="542"/>
      <point x="500.7" y="542" type="curve" smooth="yes"/>
      <point x="520.7" y="542"/>
      <point x="536.7" y="558"/>
      <point x="536.7" y="578" type="curve" smooth="yes"/>
      <point x="536.7" y="598"/>
      <point x="520.7" y="614"/>
      <point x="500.7" y="614" type="curve" smooth="yes"/>
      <point x="480.7" y="614"/>
      <point x="464.7" y="598"/>
    </contour>
    <contour>
      <point x="64.7" y="578" type="curve" smooth="yes"/>
      <point x="64.7" y="558"/>
      <point x="80.7" y="542"/>
      <point x="100.7" y="542" type="curve" smooth="yes"/>
      <point x="120.7" y="542"/>
      <point x="136.7" y="558"/>
      <point x="136.7" y="578" type="curve" smooth="yes"/>
      <point x="136.7" y="598"/>
      <point x="120.7" y="614"/>
      <point x="100.7" y="614" type="curve" smooth="yes"/>
      <point x="80.7" y="614"/>
      <point x="64.7" y="598"/>
    </contour>
    <contour>
      <point x="264.7" y="578" type="curve" smooth="yes"/>
      <point x="264.7" y="558"/>
      <point x="280.7" y="542"/>
      <point x="300.7" y="542" type="curve" smooth="yes"/>
      <point x="320.7" y="542"/>
      <point x="336.7" y="558"/>
      <point x="336.7" y="578" type="curve" smooth="yes"/>
      <point x="336.7" y="598"/>
      <point x="320.7" y="614"/>
      <point x="300.7" y="614" type="curve" smooth="yes"/>
      <point x="280.7" y="614"/>
      <point x="264.7" y="598"/>
    </contour>
    <contour>
      <point x="664.7" y="578" type="curve" smooth="yes"/>
      <point x="664.7" y="558"/>
      <point x="680.7" y="542"/>
      <point x="700.7" y="542" type="curve" smooth="yes"/>
      <point x="720.7" y="542"/>
      <point x="736.7" y="558"/>
      <point x="736.7" y="578" type="curve" smooth="yes"/>
      <point x="736.7" y="598"/>
      <point x="720.7" y="614"/>
      <point x="700.7" y="614" type="curve" smooth="yes"/>
      <point x="680.7" y="614"/>
      <point x="664.7" y="598"/>
    </contour>
    <contour>
      <point x="1064.7" y="578" type="curve" smooth="yes"/>
      <point x="1064.7" y="558"/>
      <point x="1080.7" y="542"/>
      <point x="1100.7" y="542" type="curve" smooth="yes"/>
      <point x="1120.7" y="542"/>
      <point x="1136.7" y="558"/>
      <point x="1136.7" y="578" type="curve" smooth="yes"/>
      <point x="1136.7" y="598"/>
      <point x="1120.7" y="614"/>
      <point x="1100.7" y="614" type="curve" smooth="yes"/>
      <point x="1080.7" y="614"/>
      <point x="1064.7" y="598"/>
    </contour>
    <contour>
      <point x="864.7" y="578" type="curve" smooth="yes"/>
      <point x="864.7" y="558"/>
      <point x="880.7" y="542"/>
      <point x="900.7" y="542" type="curve" smooth="yes"/>
      <point x="920.7" y="542"/>
      <point x="936.7" y="558"/>
      <point x="936.7" y="578" type="curve" smooth="yes"/>
      <point x="936.7" y="598"/>
      <point x="920.7" y="614"/>
      <point x="900.7" y="614" type="curve" smooth="yes"/>
      <point x="880.7" y="614"/>
      <point x="864.7" y="598"/>
    </contour>
    <contour>
      <point x="176.7" y="489" type="curve" smooth="yes"/>
      <point x="176.7" y="476"/>
      <point x="187.7" y="465"/>
      <point x="200.7" y="465" type="curve" smooth="yes"/>
      <point x="213.7" y="465"/>
      <point x="224.7" y="476"/>
      <point x="224.7" y="489" type="curve" smooth="yes"/>
      <point x="224.7" y="502"/>
      <point x="213.7" y="513"/>
      <point x="200.7" y="513" type="curve" smooth="yes"/>
      <point x="187.7" y="513"/>
      <point x="176.7" y="502"/>
    </contour>
    <contour>
      <point x="-23.3" y="489" type="curve" smooth="yes"/>
      <point x="-23.3" y="476"/>
      <point x="-12.3" y="465"/>
      <point x="0.700001" y="465" type="curve"/>
      <point x="2.65" y="465.1" type="line"/>
      <point x="14.75" y="466.1"/>
      <point x="24.7" y="476.65"/>
      <point x="24.7" y="489" type="curve" smooth="yes"/>
      <point x="24.7" y="502"/>
      <point x="13.7" y="513"/>
      <point x="0.700001" y="513" type="curve"/>
      <point x="-1.25" y="512.9" type="line"/>
      <point x="-13.35" y="511.9"/>
      <point x="-23.3" y="501.35"/>
    </contour>
    <contour>
      <point x="376.7" y="489" type="curve" smooth="yes"/>
      <point x="376.7" y="476"/>
      <point x="387.7" y="465"/>
      <point x="400.7" y="465" type="curve" smooth="yes"/>
      <point x="413.7" y="465"/>
      <point x="424.7" y="476"/>
      <point x="424.7" y="489" type="curve" smooth="yes"/>
      <point x="424.7" y="502"/>
      <point x="413.7" y="513"/>
      <point x="400.7" y="513" type="curve" smooth="yes"/>
      <point x="387.7" y="513"/>
      <point x="376.7" y="502"/>
    </contour>
    <contour>
      <point x="976.7" y="489" type="curve" smooth="yes"/>
      <point x="976.7" y="476"/>
      <point x="987.7" y="465"/>
      <point x="1000.7" y="465" type="curve" smooth="yes"/>
      <point x="1013.7" y="465"/>
      <point x="1024.7" y="476"/>
      <point x="1024.7" y="489" type="curve" smooth="yes"/>
      <point x="1024.7" y="502"/>
      <point x="1013.7" y="513"/>
      <point x="1000.7" y="513" type="curve" smooth="yes"/>
      <point x="987.7" y="513"/>
      <point x="976.7" y="502"/>
    </contour>
    <contour>
      <point x="776.7" y="489" type="curve" smooth="yes"/>
      <point x="776.7" y="476"/>
      <point x="787.7" y="465"/>
      <point x="800.7" y="465" type="curve" smooth="yes"/>
      <point x="813.7" y="465"/>
      <point x="824.7" y="476"/>
      <point x="824.7" y="489" type="curve" smooth="yes"/>
      <point x="824.7" y="502"/>
      <point x="813.7" y="513"/>
      <point x="800.7" y="513" type="curve" smooth="yes"/>
      <point x="787.7" y="513"/>
      <point x="776.7" y="502"/>
    </contour>
    <contour>
      <point x="576.7" y="489" type="curve" smooth="yes"/>
      <point x="576.7" y="476"/>
      <point x="587.7" y="465"/>
      <point x="600.7" y="465" type="curve" smooth="yes"/>
      <point x="613.7" y="465"/>
      <point x="624.7" y="476"/>
      <point x="624.7" y="489" type="curve" smooth="yes"/>
      <point x="624.7" y="502"/>
      <point x="613.7" y="513"/>
      <point x="600.7" y="513" type="curve" smooth="yes"/>
      <point x="587.7" y="513"/>
      <point x="576.7" y="502"/>
    </contour>
    <contour>
      <point x="464.7" y="396" type="curve" smooth="yes"/>
      <point x="464.7" y="376"/>
      <point x="480.7" y="360"/>
      <point x="500.7" y="360" type="curve" smooth="yes"/>
      <point x="520.7" y="360"/>
      <point x="536.7" y="376"/>
      <point x="536.7" y="396" type="curve" smooth="yes"/>
      <point x="536.7" y="416"/>
      <point x="520.7" y="432"/>
      <point x="500.7" y="432" type="curve" smooth="yes"/>
      <point x="480.7" y="432"/>
      <point x="464.7" y="416"/>
    </contour>
    <contour>
      <point x="264.7" y="396" type="curve" smooth="yes"/>
      <point x="264.7" y="376"/>
      <point x="280.7" y="360"/>
      <point x="300.7" y="360" type="curve" smooth="yes"/>
      <point x="320.7" y="360"/>
      <point x="336.7" y="376"/>
      <point x="336.7" y="396" type="curve" smooth="yes"/>
      <point x="336.7" y="416"/>
      <point x="320.7" y="432"/>
      <point x="300.7" y="432" type="curve" smooth="yes"/>
      <point x="280.7" y="432"/>
      <point x="264.7" y="416"/>
    </contour>
    <contour>
      <point x="64.7" y="396" type="curve" smooth="yes"/>
      <point x="64.7" y="376"/>
      <point x="80.7" y="360"/>
      <point x="100.7" y="360" type="curve" smooth="yes"/>
      <point x="120.7" y="360"/>
      <point x="136.7" y="376"/>
      <point x="136.7" y="396" type="curve" smooth="yes"/>
      <point x="136.7" y="416"/>
      <point x="120.7" y="432"/>
      <point x="100.7" y="432" type="curve" smooth="yes"/>
      <point x="80.7" y="432"/>
      <point x="64.7" y="416"/>
    </contour>
    <contour>
      <point x="1064.7" y="396" type="curve" smooth="yes"/>
      <point x="1064.7" y="376"/>
      <point x="1080.7" y="360"/>
      <point x="1100.7" y="360" type="curve" smooth="yes"/>
      <point x="1120.7" y="360"/>
      <point x="1136.7" y="376"/>
      <point x="1136.7" y="396" type="curve" smooth="yes"/>
      <point x="1136.7" y="416"/>
      <point x="1120.7" y="432"/>
      <point x="1100.7" y="432" type="curve" smooth="yes"/>
      <point x="1080.7" y="432"/>
      <point x="1064.7" y="416"/>
    </contour>
    <contour>
      <point x="664.7" y="396" type="curve" smooth="yes"/>
      <point x="664.7" y="376"/>
      <point x="680.7" y="360"/>
      <point x="700.7" y="360" type="curve" smooth="yes"/>
      <point x="720.7" y="360"/>
      <point x="736.7" y="376"/>
      <point x="736.7" y="396" type="curve" smooth="yes"/>
      <point x="736.7" y="416"/>
      <point x="720.7" y="432"/>
      <point x="700.7" y="432" type="curve" smooth="yes"/>
      <point x="680.7" y="432"/>
      <point x="664.7" y="416"/>
    </contour>
    <contour>
      <point x="864.7" y="396" type="curve" smooth="yes"/>
      <point x="864.7" y="376"/>
      <point x="880.7" y="360"/>
      <point x="900.7" y="360" type="curve" smooth="yes"/>
      <point x="920.7" y="360"/>
      <point x="936.7" y="376"/>
      <point x="936.7" y="396" type="curve" smooth="yes"/>
      <point x="936.7" y="416"/>
      <point x="920.7" y="432"/>
      <point x="900.7" y="432" type="curve" smooth="yes"/>
      <point x="880.7" y="432"/>
      <point x="864.7" y="416"/>
    </contour>
    <contour>
      <point x="376.7" y="303" type="curve" smooth="yes"/>
      <point x="376.7" y="290"/>
      <point x="387.7" y="279"/>
      <point x="400.7" y="279" type="curve" smooth="yes"/>
      <point x="413.7" y="279"/>
      <point x="424.7" y="290"/>
      <point x="424.7" y="303" type="curve" smooth="yes"/>
      <point x="424.7" y="316"/>
      <point x="413.7" y="327"/>
      <point x="400.7" y="327" type="curve" smooth="yes"/>
      <point x="387.7" y="327"/>
      <point x="376.7" y="316"/>
    </contour>
    <contour>
      <point x="176.7" y="303" type="curve" smooth="yes"/>
      <point x="176.7" y="290"/>
      <point x="187.7" y="279"/>
      <point x="200.7" y="279" type="curve" smooth="yes"/>
      <point x="213.7" y="279"/>
      <point x="224.7" y="290"/>
      <point x="224.7" y="303" type="curve" smooth="yes"/>
      <point x="224.7" y="316"/>
      <point x="213.7" y="327"/>
      <point x="200.7" y="327" type="curve" smooth="yes"/>
      <point x="187.7" y="327"/>
      <point x="176.7" y="316"/>
    </contour>
    <contour>
      <point x="-23.3" y="303" type="curve" smooth="yes"/>
      <point x="-23.3" y="290"/>
      <point x="-12.3" y="279"/>
      <point x="0.700001" y="279" type="curve"/>
      <point x="2.65" y="279.1" type="line"/>
      <point x="14.75" y="280.1"/>
      <point x="24.7" y="290.65"/>
      <point x="24.7" y="303" type="curve" smooth="yes"/>
      <point x="24.7" y="316"/>
      <point x="13.7" y="327"/>
      <point x="0.700001" y="327" type="curve"/>
      <point x="-1.25" y="326.9" type="line"/>
      <point x="-13.35" y="325.9"/>
      <point x="-23.3" y="315.35"/>
    </contour>
    <contour>
      <point x="976.7" y="303" type="curve" smooth="yes"/>
      <point x="976.7" y="290"/>
      <point x="987.7" y="279"/>
      <point x="1000.7" y="279" type="curve" smooth="yes"/>
      <point x="1013.7" y="279"/>
      <point x="1024.7" y="290"/>
      <point x="1024.7" y="303" type="curve" smooth="yes"/>
      <point x="1024.7" y="316"/>
      <point x="1013.7" y="327"/>
      <point x="1000.7" y="327" type="curve" smooth="yes"/>
      <point x="987.7" y="327"/>
      <point x="976.7" y="316"/>
    </contour>
    <contour>
      <point x="576.7" y="303" type="curve" smooth="yes"/>
      <point x="576.7" y="290"/>
      <point x="587.7" y="279"/>
      <point x="600.7" y="279" type="curve" smooth="yes"/>
      <point x="613.7" y="279"/>
      <point x="624.7" y="290"/>
      <point x="624.7" y="303" type="curve" smooth="yes"/>
      <point x="624.7" y="316"/>
      <point x="613.7" y="327"/>
      <point x="600.7" y="327" type="curve" smooth="yes"/>
      <point x="587.7" y="327"/>
      <point x="576.7" y="316"/>
    </contour>
    <contour>
      <point x="776.7" y="303" type="curve" smooth="yes"/>
      <point x="776.7" y="290"/>
      <point x="787.7" y="279"/>
      <point x="800.7" y="279" type="curve" smooth="yes"/>
      <point x="813.7" y="279"/>
      <point x="824.7" y="290"/>
      <point x="824.7" y="303" type="curve" smooth="yes"/>
      <point x="824.7" y="316"/>
      <point x="813.7" y="327"/>
      <point x="800.7" y="327" type="curve" smooth="yes"/>
      <point x="787.7" y="327"/>
      <point x="776.7" y="316"/>
    </contour>
    <contour>
      <point x="1064.7" y="210" type="curve" smooth="yes"/>
      <point x="1064.7" y="190"/>
      <point x="1080.7" y="174"/>
      <point x="1100.7" y="174" type="curve" smooth="yes"/>
      <point x="1120.7" y="174"/>
      <point x="1136.7" y="190"/>
      <point x="1136.7" y="210" type="curve" smooth="yes"/>
      <point x="1136.7" y="230"/>
      <point x="1120.7" y="246"/>
      <point x="1100.7" y="246" type="curve" smooth="yes"/>
      <point x="1080.7" y="246"/>
      <point x="1064.7" y="230"/>
    </contour>
    <contour>
      <point x="264.7" y="210" type="curve" smooth="yes"/>
      <point x="264.7" y="190"/>
      <point x="280.7" y="174"/>
      <point x="300.7" y="174" type="curve" smooth="yes"/>
      <point x="320.7" y="174"/>
      <point x="336.7" y="190"/>
      <point x="336.7" y="210" type="curve" smooth="yes"/>
      <point x="336.7" y="230"/>
      <point x="320.7" y="246"/>
      <point x="300.7" y="246" type="curve" smooth="yes"/>
      <point x="280.7" y="246"/>
      <point x="264.7" y="230"/>
    </contour>
    <contour>
      <point x="464.7" y="210" type="curve" smooth="yes"/>
      <point x="464.7" y="190"/>
      <point x="480.7" y="174"/>
      <point x="500.7" y="174" type="curve" smooth="yes"/>
      <point x="520.7" y="174"/>
      <point x="536.7" y="190"/>
      <point x="536.7" y="210" type="curve" smooth="yes"/>
      <point x="536.7" y="230"/>
      <point x="520.7" y="246"/>
      <point x="500.7" y="246" type="curve" smooth="yes"/>
      <point x="480.7" y="246"/>
      <point x="464.7" y="230"/>
    </contour>
    <contour>
      <point x="64.7" y="210" type="curve" smooth="yes"/>
      <point x="64.7" y="190"/>
      <point x="80.7" y="174"/>
      <point x="100.7" y="174" type="curve" smooth="yes"/>
      <point x="120.7" y="174"/>
      <point x="136.7" y="190"/>
      <point x="136.7" y="210" type="curve" smooth="yes"/>
      <point x="136.7" y="230"/>
      <point x="120.7" y="246"/>
      <point x="100.7" y="246" type="curve" smooth="yes"/>
      <point x="80.7" y="246"/>
      <point x="64.7" y="230"/>
    </contour>
    <contour>
      <point x="864.7" y="210" type="curve" smooth="yes"/>
      <point x="864.7" y="190"/>
      <point x="880.7" y="174"/>
      <point x="900.7" y="174" type="curve" smooth="yes"/>
      <point x="920.7" y="174"/>
      <point x="936.7" y="190"/>
      <point x="936.7" y="210" type="curve" smooth="yes"/>
      <point x="936.7" y="230"/>
      <point x="920.7" y="246"/>
      <point x="900.7" y="246" type="curve" smooth="yes"/>
      <point x="880.7" y="246"/>
      <point x="864.7" y="230"/>
    </contour>
    <contour>
      <point x="664.7" y="210" type="curve" smooth="yes"/>
      <point x="664.7" y="190"/>
      <point x="680.7" y="174"/>
      <point x="700.7" y="174" type="curve" smooth="yes"/>
      <point x="720.7" y="174"/>
      <point x="736.7" y="190"/>
      <point x="736.7" y="210" type="curve" smooth="yes"/>
      <point x="736.7" y="230"/>
      <point x="720.7" y="246"/>
      <point x="700.7" y="246" type="curve" smooth="yes"/>
      <point x="680.7" y="246"/>
      <point x="664.7" y="230"/>
    </contour>
    <contour>
      <point x="-23.3" y="117" type="curve" smooth="yes"/>
      <point x="-23.3" y="104"/>
      <point x="-12.3" y="93"/>
      <point x="0.700001" y="93" type="curve"/>
      <point x="2.65" y="93.1" type="line"/>
      <point x="14.75" y="94.1"/>
      <point x="24.7" y="104.65"/>
      <point x="24.7" y="117" type="curve" smooth="yes"/>
      <point x="24.7" y="130"/>
      <point x="13.7" y="141"/>
      <point x="0.700001" y="141" type="curve"/>
      <point x="-1.25" y="140.9" type="line"/>
      <point x="-13.35" y="139.9"/>
      <point x="-23.3" y="129.35"/>
    </contour>
    <contour>
      <point x="376.7" y="117" type="curve" smooth="yes"/>
      <point x="376.7" y="104"/>
      <point x="387.7" y="93"/>
      <point x="400.7" y="93" type="curve" smooth="yes"/>
      <point x="413.7" y="93"/>
      <point x="424.7" y="104"/>
      <point x="424.7" y="117" type="curve" smooth="yes"/>
      <point x="424.7" y="130"/>
      <point x="413.7" y="141"/>
      <point x="400.7" y="141" type="curve" smooth="yes"/>
      <point x="387.7" y="141"/>
      <point x="376.7" y="130"/>
    </contour>
    <contour>
      <point x="176.7" y="117" type="curve" smooth="yes"/>
      <point x="176.7" y="104"/>
      <point x="187.7" y="93"/>
      <point x="200.7" y="93" type="curve" smooth="yes"/>
      <point x="213.7" y="93"/>
      <point x="224.7" y="104"/>
      <point x="224.7" y="117" type="curve" smooth="yes"/>
      <point x="224.7" y="130"/>
      <point x="213.7" y="141"/>
      <point x="200.7" y="141" type="curve" smooth="yes"/>
      <point x="187.7" y="141"/>
      <point x="176.7" y="130"/>
    </contour>
    <contour>
      <point x="976.7" y="117" type="curve" smooth="yes"/>
      <point x="976.7" y="104"/>
      <point x="987.7" y="93"/>
      <point x="1000.7" y="93" type="curve" smooth="yes"/>
      <point x="1013.7" y="93"/>
      <point x="1024.7" y="104"/>
      <point x="1024.7" y="117" type="curve" smooth="yes"/>
      <point x="1024.7" y="130"/>
      <point x="1013.7" y="141"/>
      <point x="1000.7" y="141" type="curve" smooth="yes"/>
      <point x="987.7" y="141"/>
      <point x="976.7" y="130"/>
    </contour>
    <contour>
      <point x="576.7" y="117" type="curve" smooth="yes"/>
      <point x="576.7" y="104"/>
      <point x="587.7" y="93"/>
      <point x="600.7" y="93" type="curve" smooth="yes"/>
      <point x="613.7" y="93"/>
      <point x="624.7" y="104"/>
      <point x="624.7" y="117" type="curve" smooth="yes"/>
      <point x="624.7" y="130"/>
      <point x="613.7" y="141"/>
      <point x="600.7" y="141" type="curve" smooth="yes"/>
      <point x="587.7" y="141"/>
      <point x="576.7" y="130"/>
    </contour>
    <contour>
      <point x="776.7" y="117" type="curve" smooth="yes"/>
      <point x="776.7" y="104"/>
      <point x="787.7" y="93"/>
      <point x="800.7" y="93" type="curve" smooth="yes"/>
      <point x="813.7" y="93"/>
      <point x="824.7" y="104"/>
      <point x="824.7" y="117" type="curve" smooth="yes"/>
      <point x="824.7" y="130"/>
      <point x="813.7" y="141"/>
      <point x="800.7" y="141" type="curve" smooth="yes"/>
      <point x="787.7" y="141"/>
      <point x="776.7" y="130"/>
    </contour>
    <contour>
      <point x="464.7" y="24" type="curve" smooth="yes"/>
      <point x="464.7" y="4"/>
      <point x="480.7" y="-12"/>
      <point x="500.7" y="-12" type="curve" smooth="yes"/>
      <point x="520.7" y="-12"/>
      <point x="536.7" y="4"/>
      <point x="536.7" y="24" type="curve" smooth="yes"/>
      <point x="536.7" y="44"/>
      <point x="520.7" y="60"/>
      <point x="500.7" y="60" type="curve" smooth="yes"/>
      <point x="480.7" y="60"/>
      <point x="464.7" y="44"/>
    </contour>
    <contour>
      <point x="264.7" y="24" type="curve" smooth="yes"/>
      <point x="264.7" y="4"/>
      <point x="280.7" y="-12"/>
      <point x="300.7" y="-12" type="curve" smooth="yes"/>
      <point x="320.7" y="-12"/>
      <point x="336.7" y="4"/>
      <point x="336.7" y="24" type="curve" smooth="yes"/>
      <point x="336.7" y="44"/>
      <point x="320.7" y="60"/>
      <point x="300.7" y="60" type="curve" smooth="yes"/>
      <point x="280.7" y="60"/>
      <point x="264.7" y="44"/>
    </contour>
    <contour>
      <point x="1064.7" y="24" type="curve" smooth="yes"/>
      <point x="1064.7" y="4"/>
      <point x="1080.7" y="-12"/>
      <point x="1100.7" y="-12" type="curve" smooth="yes"/>
      <point x="1120.7" y="-12"/>
      <point x="1136.7" y="4"/>
      <point x="1136.7" y="24" type="curve" smooth="yes"/>
      <point x="1136.7" y="44"/>
      <point x="1120.7" y="60"/>
      <point x="1100.7" y="60" type="curve" smooth="yes"/>
      <point x="1080.7" y="60"/>
      <point x="1064.7" y="44"/>
    </contour>
    <contour>
      <point x="64.7" y="24" type="curve" smooth="yes"/>
      <point x="64.7" y="4"/>
      <point x="80.7" y="-12"/>
      <point x="100.7" y="-12" type="curve" smooth="yes"/>
      <point x="120.7" y="-12"/>
      <point x="136.7" y="4"/>
      <point x="136.7" y="24" type="curve" smooth="yes"/>
      <point x="136.7" y="44"/>
      <point x="120.7" y="60"/>
      <point x="100.7" y="60" type="curve" smooth="yes"/>
      <point x="80.7" y="60"/>
      <point x="64.7" y="44"/>
    </contour>
    <contour>
      <point x="664.7" y="24" type="curve" smooth="yes"/>
      <point x="664.7" y="4"/>
      <point x="680.7" y="-12"/>
      <point x="700.7" y="-12" type="curve" smooth="yes"/>
      <point x="720.7" y="-12"/>
      <point x="736.7" y="4"/>
      <point x="736.7" y="24" type="curve" smooth="yes"/>
      <point x="736.7" y="44"/>
      <point x="720.7" y="60"/>
      <point x="700.7" y="60" type="curve" smooth="yes"/>
      <point x="680.7" y="60"/>
      <point x="664.7" y="44"/>
    </contour>
    <contour>
      <point x="864.7" y="24" type="curve" smooth="yes"/>
      <point x="864.7" y="4"/>
      <point x="880.7" y="-12"/>
      <point x="900.7" y="-12" type="curve" smooth="yes"/>
      <point x="920.7" y="-12"/>
      <point x="936.7" y="4"/>
      <point x="936.7" y="24" type="curve" smooth="yes"/>
      <point x="936.7" y="44"/>
      <point x="920.7" y="60"/>
      <point x="900.7" y="60" type="curve" smooth="yes"/>
      <point x="880.7" y="60"/>
      <point x="864.7" y="44"/>
    </contour>
    <contour>
      <point x="376.7" y="-69" type="curve" smooth="yes"/>
      <point x="376.7" y="-82"/>
      <point x="387.7" y="-93"/>
      <point x="400.7" y="-93" type="curve" smooth="yes"/>
      <point x="413.7" y="-93"/>
      <point x="424.7" y="-82"/>
      <point x="424.7" y="-69" type="curve" smooth="yes"/>
      <point x="424.7" y="-56"/>
      <point x="413.7" y="-45"/>
      <point x="400.7" y="-45" type="curve" smooth="yes"/>
      <point x="387.7" y="-45"/>
      <point x="376.7" y="-56"/>
    </contour>
    <contour>
      <point x="176.7" y="-69" type="curve" smooth="yes"/>
      <point x="176.7" y="-82"/>
      <point x="187.7" y="-93"/>
      <point x="200.7" y="-93" type="curve" smooth="yes"/>
      <point x="213.7" y="-93"/>
      <point x="224.7" y="-82"/>
      <point x="224.7" y="-69" type="curve" smooth="yes"/>
      <point x="224.7" y="-56"/>
      <point x="213.7" y="-45"/>
      <point x="200.7" y="-45" type="curve" smooth="yes"/>
      <point x="187.7" y="-45"/>
      <point x="176.7" y="-56"/>
    </contour>
    <contour>
      <point x="-23.3" y="-69" type="curve" smooth="yes"/>
      <point x="-23.3" y="-82"/>
      <point x="-12.3" y="-93"/>
      <point x="0.700001" y="-93" type="curve"/>
      <point x="2.65" y="-92.9" type="line"/>
      <point x="14.75" y="-91.9"/>
      <point x="24.7" y="-81.35"/>
      <point x="24.7" y="-69" type="curve" smooth="yes"/>
      <point x="24.7" y="-56"/>
      <point x="13.7" y="-45"/>
      <point x="0.700001" y="-45" type="curve"/>
      <point x="-1.25" y="-45.1" type="line"/>
      <point x="-13.35" y="-46.1"/>
      <point x="-23.3" y="-56.65"/>
    </contour>
    <contour>
      <point x="976.7" y="-69" type="curve" smooth="yes"/>
      <point x="976.7" y="-82"/>
      <point x="987.7" y="-93"/>
      <point x="1000.7" y="-93" type="curve" smooth="yes"/>
      <point x="1013.7" y="-93"/>
      <point x="1024.7" y="-82"/>
      <point x="1024.7" y="-69" type="curve" smooth="yes"/>
      <point x="1024.7" y="-56"/>
      <point x="1013.7" y="-45"/>
      <point x="1000.7" y="-45" type="curve" smooth="yes"/>
      <point x="987.7" y="-45"/>
      <point x="976.7" y="-56"/>
    </contour>
    <contour>
      <point x="576.7" y="-69" type="curve" smooth="yes"/>
      <point x="576.7" y="-82"/>
      <point x="587.7" y="-93"/>
      <point x="600.7" y="-93" type="curve" smooth="yes"/>
      <point x="613.7" y="-93"/>
      <point x="624.7" y="-82"/>
      <point x="624.7" y="-69" type="curve" smooth="yes"/>
      <point x="624.7" y="-56"/>
      <point x="613.7" y="-45"/>
      <point x="600.7" y="-45" type="curve" smooth="yes"/>
      <point x="587.7" y="-45"/>
      <point x="576.7" y="-56"/>
    </contour>
    <contour>
      <point x="776.7" y="-69" type="curve" smooth="yes"/>
      <point x="776.7" y="-82"/>
      <point x="787.7" y="-93"/>
      <point x="800.7" y="-93" type="curve" smooth="yes"/>
      <point x="813.7" y="-93"/>
      <point x="824.7" y="-82"/>
      <point x="824.7" y="-69" type="curve" smooth="yes"/>
      <point x="824.7" y="-56"/>
      <point x="813.7" y="-45"/>
      <point x="800.7" y="-45" type="curve" smooth="yes"/>
      <point x="787.7" y="-45"/>
      <point x="776.7" y="-56"/>
    </contour>
    <contour>
      <point x="1064.7" y="-162" type="curve" smooth="yes"/>
      <point x="1064.7" y="-182"/>
      <point x="1080.7" y="-198"/>
      <point x="1100.7" y="-198" type="curve" smooth="yes"/>
      <point x="1120.7" y="-198"/>
      <point x="1136.7" y="-182"/>
      <point x="1136.7" y="-162" type="curve" smooth="yes"/>
      <point x="1136.7" y="-142"/>
      <point x="1120.7" y="-126"/>
      <point x="1100.7" y="-126" type="curve" smooth="yes"/>
      <point x="1080.7" y="-126"/>
      <point x="1064.7" y="-142"/>
    </contour>
    <contour>
      <point x="64.7" y="-162" type="curve" smooth="yes"/>
      <point x="64.7" y="-182"/>
      <point x="80.7" y="-198"/>
      <point x="100.7" y="-198" type="curve" smooth="yes"/>
      <point x="120.7" y="-198"/>
      <point x="136.7" y="-182"/>
      <point x="136.7" y="-162" type="curve" smooth="yes"/>
      <point x="136.7" y="-142"/>
      <point x="120.7" y="-126"/>
      <point x="100.7" y="-126" type="curve" smooth="yes"/>
      <point x="80.7" y="-126"/>
      <point x="64.7" y="-142"/>
    </contour>
    <contour>
      <point x="464.7" y="-162" type="curve" smooth="yes"/>
      <point x="464.7" y="-182"/>
      <point x="480.7" y="-198"/>
      <point x="500.7" y="-198" type="curve" smooth="yes"/>
      <point x="520.7" y="-198"/>
      <point x="536.7" y="-182"/>
      <point x="536.7" y="-162" type="curve" smooth="yes"/>
      <point x="536.7" y="-142"/>
      <point x="520.7" y="-126"/>
      <point x="500.7" y="-126" type="curve" smooth="yes"/>
      <point x="480.7" y="-126"/>
      <point x="464.7" y="-142"/>
    </contour>
    <contour>
      <point x="264.7" y="-162" type="curve" smooth="yes"/>
      <point x="264.7" y="-182"/>
      <point x="280.7" y="-198"/>
      <point x="300.7" y="-198" type="curve" smooth="yes"/>
      <point x="320.7" y="-198"/>
      <point x="336.7" y="-182"/>
      <point x="336.7" y="-162" type="curve" smooth="yes"/>
      <point x="336.7" y="-142"/>
      <point x="320.7" y="-126"/>
      <point x="300.7" y="-126" type="curve" smooth="yes"/>
      <point x="280.7" y="-126"/>
      <point x="264.7" y="-142"/>
    </contour>
    <contour>
      <point x="664.7" y="-162" type="curve" smooth="yes"/>
      <point x="664.7" y="-182"/>
      <point x="680.7" y="-198"/>
      <point x="700.7" y="-198" type="curve" smooth="yes"/>
      <point x="720.7" y="-198"/>
      <point x="736.7" y="-182"/>
      <point x="736.7" y="-162" type="curve" smooth="yes"/>
      <point x="736.7" y="-142"/>
      <point x="720.7" y="-126"/>
      <point x="700.7" y="-126" type="curve" smooth="yes"/>
      <point x="680.7" y="-126"/>
      <point x="664.7" y="-142"/>
    </contour>
    <contour>
      <point x="864.7" y="-162" type="curve" smooth="yes"/>
      <point x="864.7" y="-182"/>
      <point x="880.7" y="-198"/>
      <point x="900.7" y="-198" type="curve" smooth="yes"/>
      <point x="920.7" y="-198"/>
      <point x="936.7" y="-182"/>
      <point x="936.7" y="-162" type="curve" smooth="yes"/>
      <point x="936.7" y="-142"/>
      <point x="920.7" y="-126"/>
      <point x="900.7" y="-126" type="curve" smooth="yes"/>
      <point x="880.7" y="-126"/>
      <point x="864.7" y="-142"/>
    </contour>
    <contour>
      <point x="976.7" y="-255" type="curve" smooth="yes"/>
      <point x="976.7" y="-268"/>
      <point x="987.7" y="-279"/>
      <point x="1000.7" y="-279" type="curve" smooth="yes"/>
      <point x="1013.7" y="-279"/>
      <point x="1024.7" y="-268"/>
      <point x="1024.7" y="-255" type="curve" smooth="yes"/>
      <point x="1024.7" y="-242"/>
      <point x="1013.7" y="-231"/>
      <point x="1000.7" y="-231" type="curve" smooth="yes"/>
      <point x="987.7" y="-231"/>
      <point x="976.7" y="-242"/>
    </contour>
    <contour>
      <point x="376.7" y="-255" type="curve" smooth="yes"/>
      <point x="376.7" y="-268"/>
      <point x="387.7" y="-279"/>
      <point x="400.7" y="-279" type="curve" smooth="yes"/>
      <point x="413.7" y="-279"/>
      <point x="424.7" y="-268"/>
      <point x="424.7" y="-255" type="curve" smooth="yes"/>
      <point x="424.7" y="-242"/>
      <point x="413.7" y="-231"/>
      <point x="400.7" y="-231" type="curve" smooth="yes"/>
      <point x="387.7" y="-231"/>
      <point x="376.7" y="-242"/>
    </contour>
    <contour>
      <point x="176.7" y="-255" type="curve" smooth="yes"/>
      <point x="176.7" y="-268"/>
      <point x="187.7" y="-279"/>
      <point x="200.7" y="-279" type="curve" smooth="yes"/>
      <point x="213.7" y="-279"/>
      <point x="224.7" y="-268"/>
      <point x="224.7" y="-255" type="curve" smooth="yes"/>
      <point x="224.7" y="-242"/>
      <point x="213.7" y="-231"/>
      <point x="200.7" y="-231" type="curve" smooth="yes"/>
      <point x="187.7" y="-231"/>
      <point x="176.7" y="-242"/>
    </contour>
    <contour>
      <point x="-23.3" y="-255" type="curve" smooth="yes"/>
      <point x="-23.3" y="-268"/>
      <point x="-12.3" y="-279"/>
      <point x="0.700001" y="-279" type="curve"/>
      <point x="2.65" y="-278.9" type="line"/>
      <point x="14.75" y="-277.9"/>
      <point x="24.7" y="-267.35"/>
      <point x="24.7" y="-255" type="curve" smooth="yes"/>
      <point x="24.7" y="-242"/>
      <point x="13.7" y="-231"/>
      <point x="0.700001" y="-231" type="curve"/>
      <point x="-1.25" y="-231.1" type="line"/>
      <point x="-13.35" y="-232.1"/>
      <point x="-23.3" y="-242.65"/>
    </contour>
    <contour>
      <point x="576.7" y="-255" type="curve" smooth="yes"/>
      <point x="576.7" y="-268"/>
      <point x="587.7" y="-279"/>
      <point x="600.7" y="-279" type="curve" smooth="yes"/>
      <point x="613.7" y="-279"/>
      <point x="624.7" y="-268"/>
      <point x="624.7" y="-255" type="curve" smooth="yes"/>
      <point x="624.7" y="-242"/>
      <point x="613.7" y="-231"/>
      <point x="600.7" y="-231" type="curve" smooth="yes"/>
      <point x="587.7" y="-231"/>
      <point x="576.7" y="-242"/>
    </contour>
    <contour>
      <point x="776.7" y="-255" type="curve" smooth="yes"/>
      <point x="776.7" y="-268"/>
      <point x="787.7" y="-279"/>
      <point x="800.7" y="-279" type="curve" smooth="yes"/>
      <point x="813.7" y="-279"/>
      <point x="824.7" y="-268"/>
      <point x="824.7" y="-255" type="curve" smooth="yes"/>
      <point x="824.7" y="-242"/>
      <point x="813.7" y="-231"/>
      <point x="800.7" y="-231" type="curve" smooth="yes"/>
      <point x="787.7" y="-231"/>
      <point x="776.7" y="-242"/>
    </contour>
  </outline>
  <guideline angle="90" x="300" y="0"/>
  <guideline angle="90" x="900" y="0"/>
</glyph>
<glyph name="shade" format="2">
  <advance width="1200"/>
  <unicode hex="2592"/>
  <outline>
    <contour>
      <point x="448.3" y="950" type="curve" smooth="yes" name="hr00"/>
      <point x="448.3" y="920"/>
      <point x="472.3" y="896"/>
      <point x="502.3" y="896" type="curve" smooth="yes"/>
      <point x="532.3" y="896"/>
      <point x="556.3" y="920"/>
      <point x="556.3" y="950" type="curve" smooth="yes"/>
      <point x="556.3" y="980"/>
      <point x="532.3" y="1004"/>
      <point x="502.3" y="1004" type="curve" smooth="yes"/>
      <point x="472.3" y="1004"/>
      <point x="448.3" y="980"/>
    </contour>
    <contour>
      <point x="248.3" y="950" type="curve" smooth="yes"/>
      <point x="248.3" y="920"/>
      <point x="272.3" y="896"/>
      <point x="302.3" y="896" type="curve" smooth="yes"/>
      <point x="332.3" y="896"/>
      <point x="356.3" y="920"/>
      <point x="356.3" y="950" type="curve" smooth="yes"/>
      <point x="356.3" y="980"/>
      <point x="332.3" y="1004"/>
      <point x="302.3" y="1004" type="curve" smooth="yes"/>
      <point x="272.3" y="1004"/>
      <point x="248.3" y="980"/>
    </contour>
    <contour>
      <point x="48.3" y="950" type="curve" smooth="yes"/>
      <point x="48.3" y="920"/>
      <point x="72.3" y="896"/>
      <point x="102.3" y="896" type="curve" smooth="yes"/>
      <point x="132.3" y="896"/>
      <point x="156.3" y="920"/>
      <point x="156.3" y="950" type="curve" smooth="yes"/>
      <point x="156.3" y="980"/>
      <point x="132.3" y="1004"/>
      <point x="102.3" y="1004" type="curve" smooth="yes"/>
      <point x="72.3" y="1004"/>
      <point x="48.3" y="980"/>
    </contour>
    <contour>
      <point x="648.3" y="950" type="curve" smooth="yes"/>
      <point x="648.3" y="920"/>
      <point x="672.3" y="896"/>
      <point x="702.3" y="896" type="curve" smooth="yes"/>
      <point x="732.3" y="896"/>
      <point x="756.3" y="920"/>
      <point x="756.3" y="950" type="curve" smooth="yes"/>
      <point x="756.3" y="980"/>
      <point x="732.3" y="1004"/>
      <point x="702.3" y="1004" type="curve" smooth="yes"/>
      <point x="672.3" y="1004"/>
      <point x="648.3" y="980"/>
    </contour>
    <contour>
      <point x="1048.3" y="950" type="curve" smooth="yes" name="hr00"/>
      <point x="1048.3" y="920"/>
      <point x="1072.3" y="896"/>
      <point x="1102.3" y="896" type="curve" smooth="yes"/>
      <point x="1132.3" y="896"/>
      <point x="1156.3" y="920"/>
      <point x="1156.3" y="950" type="curve" smooth="yes"/>
      <point x="1156.3" y="980"/>
      <point x="1132.3" y="1004"/>
      <point x="1102.3" y="1004" type="curve" smooth="yes"/>
      <point x="1072.3" y="1004"/>
      <point x="1048.3" y="980"/>
    </contour>
    <contour>
      <point x="848.3" y="950" type="curve" smooth="yes"/>
      <point x="848.3" y="920"/>
      <point x="872.3" y="896"/>
      <point x="902.3" y="896" type="curve" smooth="yes"/>
      <point x="932.3" y="896"/>
      <point x="956.3" y="920"/>
      <point x="956.3" y="950" type="curve" smooth="yes"/>
      <point x="956.3" y="980"/>
      <point x="932.3" y="1004"/>
      <point x="902.3" y="1004" type="curve" smooth="yes"/>
      <point x="872.3" y="1004"/>
      <point x="848.3" y="980"/>
    </contour>
    <contour>
      <point x="366.3" y="857" type="curve" smooth="yes"/>
      <point x="366.3" y="837"/>
      <point x="382.3" y="821"/>
      <point x="402.3" y="821" type="curve" smooth="yes"/>
      <point x="422.3" y="821"/>
      <point x="438.3" y="837"/>
      <point x="438.3" y="857" type="curve" smooth="yes"/>
      <point x="438.3" y="877"/>
      <point x="422.3" y="893"/>
      <point x="402.3" y="893" type="curve" smooth="yes"/>
      <point x="382.3" y="893"/>
      <point x="366.3" y="877"/>
    </contour>
    <contour>
      <point x="166.3" y="857" type="curve" smooth="yes"/>
      <point x="166.3" y="837"/>
      <point x="182.3" y="821"/>
      <point x="202.3" y="821" type="curve" smooth="yes"/>
      <point x="222.3" y="821"/>
      <point x="238.3" y="837"/>
      <point x="238.3" y="857" type="curve" smooth="yes"/>
      <point x="238.3" y="877"/>
      <point x="222.3" y="893"/>
      <point x="202.3" y="893" type="curve" smooth="yes"/>
      <point x="182.3" y="893"/>
      <point x="166.3" y="877"/>
    </contour>
    <contour>
      <point x="-33.7" y="857" type="curve" smooth="yes"/>
      <point x="-33.7" y="837"/>
      <point x="-17.7" y="821"/>
      <point x="2.3" y="821" type="curve" smooth="yes"/>
      <point x="22.3" y="821"/>
      <point x="38.3" y="837"/>
      <point x="38.3" y="857" type="curve" smooth="yes"/>
      <point x="38.3" y="877"/>
      <point x="22.3" y="893"/>
      <point x="2.3" y="893" type="curve" smooth="yes"/>
      <point x="-17.7" y="893"/>
      <point x="-33.7" y="877"/>
    </contour>
    <contour>
      <point x="566.3" y="857" type="curve" smooth="yes"/>
      <point x="566.3" y="837"/>
      <point x="582.3" y="821"/>
      <point x="602.3" y="821" type="curve" smooth="yes"/>
      <point x="622.3" y="821"/>
      <point x="638.3" y="837"/>
      <point x="638.3" y="857" type="curve" smooth="yes"/>
      <point x="638.3" y="877"/>
      <point x="622.3" y="893"/>
      <point x="602.3" y="893" type="curve" smooth="yes"/>
      <point x="582.3" y="893"/>
      <point x="566.3" y="877"/>
    </contour>
    <contour>
      <point x="766.3" y="857" type="curve" smooth="yes"/>
      <point x="766.3" y="837"/>
      <point x="782.3" y="821"/>
      <point x="802.3" y="821" type="curve" smooth="yes"/>
      <point x="822.3" y="821"/>
      <point x="838.3" y="837"/>
      <point x="838.3" y="857" type="curve" smooth="yes"/>
      <point x="838.3" y="877"/>
      <point x="822.3" y="893"/>
      <point x="802.3" y="893" type="curve" smooth="yes"/>
      <point x="782.3" y="893"/>
      <point x="766.3" y="877"/>
    </contour>
    <contour>
      <point x="966.3" y="857" type="curve" smooth="yes"/>
      <point x="966.3" y="837"/>
      <point x="982.3" y="821"/>
      <point x="1002.3" y="821" type="curve" smooth="yes"/>
      <point x="1022.3" y="821"/>
      <point x="1038.3" y="837"/>
      <point x="1038.3" y="857" type="curve" smooth="yes"/>
      <point x="1038.3" y="877"/>
      <point x="1022.3" y="893"/>
      <point x="1002.3" y="893" type="curve" smooth="yes"/>
      <point x="982.3" y="893"/>
      <point x="966.3" y="877"/>
    </contour>
    <contour>
      <point x="448.3" y="764" type="curve" smooth="yes"/>
      <point x="448.3" y="734"/>
      <point x="472.3" y="710"/>
      <point x="502.3" y="710" type="curve" smooth="yes"/>
      <point x="532.3" y="710"/>
      <point x="556.3" y="734"/>
      <point x="556.3" y="764" type="curve" smooth="yes"/>
      <point x="556.3" y="794"/>
      <point x="532.3" y="818"/>
      <point x="502.3" y="818" type="curve" smooth="yes"/>
      <point x="472.3" y="818"/>
      <point x="448.3" y="794"/>
    </contour>
    <contour>
      <point x="48.3" y="764" type="curve" smooth="yes"/>
      <point x="48.3" y="734"/>
      <point x="72.3" y="710"/>
      <point x="102.3" y="710" type="curve" smooth="yes"/>
      <point x="132.3" y="710"/>
      <point x="156.3" y="734"/>
      <point x="156.3" y="764" type="curve" smooth="yes"/>
      <point x="156.3" y="794"/>
      <point x="132.3" y="818"/>
      <point x="102.3" y="818" type="curve" smooth="yes"/>
      <point x="72.3" y="818"/>
      <point x="48.3" y="794"/>
    </contour>
    <contour>
      <point x="248.3" y="764" type="curve" smooth="yes"/>
      <point x="248.3" y="734"/>
      <point x="272.3" y="710"/>
      <point x="302.3" y="710" type="curve" smooth="yes"/>
      <point x="332.3" y="710"/>
      <point x="356.3" y="734"/>
      <point x="356.3" y="764" type="curve" smooth="yes"/>
      <point x="356.3" y="794"/>
      <point x="332.3" y="818"/>
      <point x="302.3" y="818" type="curve" smooth="yes"/>
      <point x="272.3" y="818"/>
      <point x="248.3" y="794"/>
    </contour>
    <contour>
      <point x="1048.3" y="764" type="curve" smooth="yes"/>
      <point x="1048.3" y="734"/>
      <point x="1072.3" y="710"/>
      <point x="1102.3" y="710" type="curve" smooth="yes"/>
      <point x="1132.3" y="710"/>
      <point x="1156.3" y="734"/>
      <point x="1156.3" y="764" type="curve" smooth="yes"/>
      <point x="1156.3" y="794"/>
      <point x="1132.3" y="818"/>
      <point x="1102.3" y="818" type="curve" smooth="yes"/>
      <point x="1072.3" y="818"/>
      <point x="1048.3" y="794"/>
    </contour>
    <contour>
      <point x="848.3" y="764" type="curve" smooth="yes"/>
      <point x="848.3" y="734"/>
      <point x="872.3" y="710"/>
      <point x="902.3" y="710" type="curve" smooth="yes"/>
      <point x="932.3" y="710"/>
      <point x="956.3" y="734"/>
      <point x="956.3" y="764" type="curve" smooth="yes"/>
      <point x="956.3" y="794"/>
      <point x="932.3" y="818"/>
      <point x="902.3" y="818" type="curve" smooth="yes"/>
      <point x="872.3" y="818"/>
      <point x="848.3" y="794"/>
    </contour>
    <contour>
      <point x="648.3" y="764" type="curve" smooth="yes"/>
      <point x="648.3" y="734"/>
      <point x="672.3" y="710"/>
      <point x="702.3" y="710" type="curve" smooth="yes"/>
      <point x="732.3" y="710"/>
      <point x="756.3" y="734"/>
      <point x="756.3" y="764" type="curve" smooth="yes"/>
      <point x="756.3" y="794"/>
      <point x="732.3" y="818"/>
      <point x="702.3" y="818" type="curve" smooth="yes"/>
      <point x="672.3" y="818"/>
      <point x="648.3" y="794"/>
    </contour>
    <contour>
      <point x="366.3" y="671" type="curve" smooth="yes"/>
      <point x="366.3" y="651"/>
      <point x="382.3" y="635"/>
      <point x="402.3" y="635" type="curve" smooth="yes"/>
      <point x="422.3" y="635"/>
      <point x="438.3" y="651"/>
      <point x="438.3" y="671" type="curve" smooth="yes"/>
      <point x="438.3" y="691"/>
      <point x="422.3" y="707"/>
      <point x="402.3" y="707" type="curve" smooth="yes"/>
      <point x="382.3" y="707"/>
      <point x="366.3" y="691"/>
    </contour>
    <contour>
      <point x="-33.7" y="671" type="curve" smooth="yes"/>
      <point x="-33.7" y="651"/>
      <point x="-17.7" y="635"/>
      <point x="2.3" y="635" type="curve" smooth="yes"/>
      <point x="22.3" y="635"/>
      <point x="38.3" y="651"/>
      <point x="38.3" y="671" type="curve" smooth="yes"/>
      <point x="38.3" y="691"/>
      <point x="22.3" y="707"/>
      <point x="2.3" y="707" type="curve" smooth="yes"/>
      <point x="-17.7" y="707"/>
      <point x="-33.7" y="691"/>
    </contour>
    <contour>
      <point x="166.3" y="671" type="curve" smooth="yes"/>
      <point x="166.3" y="651"/>
      <point x="182.3" y="635"/>
      <point x="202.3" y="635" type="curve" smooth="yes"/>
      <point x="222.3" y="635"/>
      <point x="238.3" y="651"/>
      <point x="238.3" y="671" type="curve" smooth="yes"/>
      <point x="238.3" y="691"/>
      <point x="222.3" y="707"/>
      <point x="202.3" y="707" type="curve" smooth="yes"/>
      <point x="182.3" y="707"/>
      <point x="166.3" y="691"/>
    </contour>
    <contour>
      <point x="566.3" y="671" type="curve" smooth="yes"/>
      <point x="566.3" y="651"/>
      <point x="582.3" y="635"/>
      <point x="602.3" y="635" type="curve" smooth="yes"/>
      <point x="622.3" y="635"/>
      <point x="638.3" y="651"/>
      <point x="638.3" y="671" type="curve" smooth="yes"/>
      <point x="638.3" y="691"/>
      <point x="622.3" y="707"/>
      <point x="602.3" y="707" type="curve" smooth="yes"/>
      <point x="582.3" y="707"/>
      <point x="566.3" y="691"/>
    </contour>
    <contour>
      <point x="966.3" y="671" type="curve" smooth="yes"/>
      <point x="966.3" y="651"/>
      <point x="982.3" y="635"/>
      <point x="1002.3" y="635" type="curve" smooth="yes"/>
      <point x="1022.3" y="635"/>
      <point x="1038.3" y="651"/>
      <point x="1038.3" y="671" type="curve" smooth="yes"/>
      <point x="1038.3" y="691"/>
      <point x="1022.3" y="707"/>
      <point x="1002.3" y="707" type="curve" smooth="yes"/>
      <point x="982.3" y="707"/>
      <point x="966.3" y="691"/>
    </contour>
    <contour>
      <point x="766.3" y="671" type="curve" smooth="yes"/>
      <point x="766.3" y="651"/>
      <point x="782.3" y="635"/>
      <point x="802.3" y="635" type="curve" smooth="yes"/>
      <point x="822.3" y="635"/>
      <point x="838.3" y="651"/>
      <point x="838.3" y="671" type="curve" smooth="yes"/>
      <point x="838.3" y="691"/>
      <point x="822.3" y="707"/>
      <point x="802.3" y="707" type="curve" smooth="yes"/>
      <point x="782.3" y="707"/>
      <point x="766.3" y="691"/>
    </contour>
    <contour>
      <point x="448.3" y="578" type="curve" smooth="yes"/>
      <point x="448.3" y="548"/>
      <point x="472.3" y="524"/>
      <point x="502.3" y="524" type="curve" smooth="yes"/>
      <point x="532.3" y="524"/>
      <point x="556.3" y="548"/>
      <point x="556.3" y="578" type="curve" smooth="yes"/>
      <point x="556.3" y="608"/>
      <point x="532.3" y="632"/>
      <point x="502.3" y="632" type="curve" smooth="yes"/>
      <point x="472.3" y="632"/>
      <point x="448.3" y="608"/>
    </contour>
    <contour>
      <point x="48.3" y="578" type="curve" smooth="yes"/>
      <point x="48.3" y="548"/>
      <point x="72.3" y="524"/>
      <point x="102.3" y="524" type="curve" smooth="yes"/>
      <point x="132.3" y="524"/>
      <point x="156.3" y="548"/>
      <point x="156.3" y="578" type="curve" smooth="yes"/>
      <point x="156.3" y="608"/>
      <point x="132.3" y="632"/>
      <point x="102.3" y="632" type="curve" smooth="yes"/>
      <point x="72.3" y="632"/>
      <point x="48.3" y="608"/>
    </contour>
    <contour>
      <point x="248.3" y="578" type="curve" smooth="yes"/>
      <point x="248.3" y="548"/>
      <point x="272.3" y="524"/>
      <point x="302.3" y="524" type="curve" smooth="yes"/>
      <point x="332.3" y="524"/>
      <point x="356.3" y="548"/>
      <point x="356.3" y="578" type="curve" smooth="yes"/>
      <point x="356.3" y="608"/>
      <point x="332.3" y="632"/>
      <point x="302.3" y="632" type="curve" smooth="yes"/>
      <point x="272.3" y="632"/>
      <point x="248.3" y="608"/>
    </contour>
    <contour>
      <point x="648.3" y="578" type="curve" smooth="yes"/>
      <point x="648.3" y="548"/>
      <point x="672.3" y="524"/>
      <point x="702.3" y="524" type="curve" smooth="yes"/>
      <point x="732.3" y="524"/>
      <point x="756.3" y="548"/>
      <point x="756.3" y="578" type="curve" smooth="yes"/>
      <point x="756.3" y="608"/>
      <point x="732.3" y="632"/>
      <point x="702.3" y="632" type="curve" smooth="yes"/>
      <point x="672.3" y="632"/>
      <point x="648.3" y="608"/>
    </contour>
    <contour>
      <point x="848.3" y="578" type="curve" smooth="yes"/>
      <point x="848.3" y="548"/>
      <point x="872.3" y="524"/>
      <point x="902.3" y="524" type="curve" smooth="yes"/>
      <point x="932.3" y="524"/>
      <point x="956.3" y="548"/>
      <point x="956.3" y="578" type="curve" smooth="yes"/>
      <point x="956.3" y="608"/>
      <point x="932.3" y="632"/>
      <point x="902.3" y="632" type="curve" smooth="yes"/>
      <point x="872.3" y="632"/>
      <point x="848.3" y="608"/>
    </contour>
    <contour>
      <point x="1048.3" y="578" type="curve" smooth="yes"/>
      <point x="1048.3" y="548"/>
      <point x="1072.3" y="524"/>
      <point x="1102.3" y="524" type="curve" smooth="yes"/>
      <point x="1132.3" y="524"/>
      <point x="1156.3" y="548"/>
      <point x="1156.3" y="578" type="curve" smooth="yes"/>
      <point x="1156.3" y="608"/>
      <point x="1132.3" y="632"/>
      <point x="1102.3" y="632" type="curve" smooth="yes"/>
      <point x="1072.3" y="632"/>
      <point x="1048.3" y="608"/>
    </contour>
    <contour>
      <point x="366.3" y="485" type="curve" smooth="yes"/>
      <point x="366.3" y="465"/>
      <point x="382.3" y="449"/>
      <point x="402.3" y="449" type="curve" smooth="yes"/>
      <point x="422.3" y="449"/>
      <point x="438.3" y="465"/>
      <point x="438.3" y="485" type="curve" smooth="yes"/>
      <point x="438.3" y="505"/>
      <point x="422.3" y="521"/>
      <point x="402.3" y="521" type="curve" smooth="yes"/>
      <point x="382.3" y="521"/>
      <point x="366.3" y="505"/>
    </contour>
    <contour>
      <point x="-33.7" y="485" type="curve" smooth="yes"/>
      <point x="-33.7" y="465"/>
      <point x="-17.7" y="449"/>
      <point x="2.3" y="449" type="curve" smooth="yes"/>
      <point x="22.3" y="449"/>
      <point x="38.3" y="465"/>
      <point x="38.3" y="485" type="curve" smooth="yes"/>
      <point x="38.3" y="505"/>
      <point x="22.3" y="521"/>
      <point x="2.3" y="521" type="curve" smooth="yes"/>
      <point x="-17.7" y="521"/>
      <point x="-33.7" y="505"/>
    </contour>
    <contour>
      <point x="166.3" y="485" type="curve" smooth="yes"/>
      <point x="166.3" y="465"/>
      <point x="182.3" y="449"/>
      <point x="202.3" y="449" type="curve" smooth="yes"/>
      <point x="222.3" y="449"/>
      <point x="238.3" y="465"/>
      <point x="238.3" y="485" type="curve" smooth="yes"/>
      <point x="238.3" y="505"/>
      <point x="222.3" y="521"/>
      <point x="202.3" y="521" type="curve" smooth="yes"/>
      <point x="182.3" y="521"/>
      <point x="166.3" y="505"/>
    </contour>
    <contour>
      <point x="766.3" y="485" type="curve" smooth="yes"/>
      <point x="766.3" y="465"/>
      <point x="782.3" y="449"/>
      <point x="802.3" y="449" type="curve" smooth="yes"/>
      <point x="822.3" y="449"/>
      <point x="838.3" y="465"/>
      <point x="838.3" y="485" type="curve" smooth="yes"/>
      <point x="838.3" y="505"/>
      <point x="822.3" y="521"/>
      <point x="802.3" y="521" type="curve" smooth="yes"/>
      <point x="782.3" y="521"/>
      <point x="766.3" y="505"/>
    </contour>
    <contour>
      <point x="566.3" y="485" type="curve" smooth="yes"/>
      <point x="566.3" y="465"/>
      <point x="582.3" y="449"/>
      <point x="602.3" y="449" type="curve" smooth="yes"/>
      <point x="622.3" y="449"/>
      <point x="638.3" y="465"/>
      <point x="638.3" y="485" type="curve" smooth="yes"/>
      <point x="638.3" y="505"/>
      <point x="622.3" y="521"/>
      <point x="602.3" y="521" type="curve" smooth="yes"/>
      <point x="582.3" y="521"/>
      <point x="566.3" y="505"/>
    </contour>
    <contour>
      <point x="966.3" y="485" type="curve" smooth="yes"/>
      <point x="966.3" y="465"/>
      <point x="982.3" y="449"/>
      <point x="1002.3" y="449" type="curve" smooth="yes"/>
      <point x="1022.3" y="449"/>
      <point x="1038.3" y="465"/>
      <point x="1038.3" y="485" type="curve" smooth="yes"/>
      <point x="1038.3" y="505"/>
      <point x="1022.3" y="521"/>
      <point x="1002.3" y="521" type="curve" smooth="yes"/>
      <point x="982.3" y="521"/>
      <point x="966.3" y="505"/>
    </contour>
    <contour>
      <point x="248.3" y="392" type="curve" smooth="yes"/>
      <point x="248.3" y="362"/>
      <point x="272.3" y="338"/>
      <point x="302.3" y="338" type="curve" smooth="yes"/>
      <point x="332.3" y="338"/>
      <point x="356.3" y="362"/>
      <point x="356.3" y="392" type="curve" smooth="yes"/>
      <point x="356.3" y="422"/>
      <point x="332.3" y="446"/>
      <point x="302.3" y="446" type="curve" smooth="yes"/>
      <point x="272.3" y="446"/>
      <point x="248.3" y="422"/>
    </contour>
    <contour>
      <point x="48.3" y="392" type="curve" smooth="yes"/>
      <point x="48.3" y="362"/>
      <point x="72.3" y="338"/>
      <point x="102.3" y="338" type="curve" smooth="yes"/>
      <point x="132.3" y="338"/>
      <point x="156.3" y="362"/>
      <point x="156.3" y="392" type="curve" smooth="yes"/>
      <point x="156.3" y="422"/>
      <point x="132.3" y="446"/>
      <point x="102.3" y="446" type="curve" smooth="yes"/>
      <point x="72.3" y="446"/>
      <point x="48.3" y="422"/>
    </contour>
    <contour>
      <point x="448.3" y="392" type="curve" smooth="yes"/>
      <point x="448.3" y="362"/>
      <point x="472.3" y="338"/>
      <point x="502.3" y="338" type="curve" smooth="yes"/>
      <point x="532.3" y="338"/>
      <point x="556.3" y="362"/>
      <point x="556.3" y="392" type="curve" smooth="yes"/>
      <point x="556.3" y="422"/>
      <point x="532.3" y="446"/>
      <point x="502.3" y="446" type="curve" smooth="yes"/>
      <point x="472.3" y="446"/>
      <point x="448.3" y="422"/>
    </contour>
    <contour>
      <point x="648.3" y="392" type="curve" smooth="yes"/>
      <point x="648.3" y="362"/>
      <point x="672.3" y="338"/>
      <point x="702.3" y="338" type="curve" smooth="yes"/>
      <point x="732.3" y="338"/>
      <point x="756.3" y="362"/>
      <point x="756.3" y="392" type="curve" smooth="yes"/>
      <point x="756.3" y="422"/>
      <point x="732.3" y="446"/>
      <point x="702.3" y="446" type="curve" smooth="yes"/>
      <point x="672.3" y="446"/>
      <point x="648.3" y="422"/>
    </contour>
    <contour>
      <point x="848.3" y="392" type="curve" smooth="yes"/>
      <point x="848.3" y="362"/>
      <point x="872.3" y="338"/>
      <point x="902.3" y="338" type="curve" smooth="yes"/>
      <point x="932.3" y="338"/>
      <point x="956.3" y="362"/>
      <point x="956.3" y="392" type="curve" smooth="yes"/>
      <point x="956.3" y="422"/>
      <point x="932.3" y="446"/>
      <point x="902.3" y="446" type="curve" smooth="yes"/>
      <point x="872.3" y="446"/>
      <point x="848.3" y="422"/>
    </contour>
    <contour>
      <point x="1048.3" y="392" type="curve" smooth="yes"/>
      <point x="1048.3" y="362"/>
      <point x="1072.3" y="338"/>
      <point x="1102.3" y="338" type="curve" smooth="yes"/>
      <point x="1132.3" y="338"/>
      <point x="1156.3" y="362"/>
      <point x="1156.3" y="392" type="curve" smooth="yes"/>
      <point x="1156.3" y="422"/>
      <point x="1132.3" y="446"/>
      <point x="1102.3" y="446" type="curve" smooth="yes"/>
      <point x="1072.3" y="446"/>
      <point x="1048.3" y="422"/>
    </contour>
    <contour>
      <point x="166.3" y="299" type="curve" smooth="yes"/>
      <point x="166.3" y="279"/>
      <point x="182.3" y="263"/>
      <point x="202.3" y="263" type="curve" smooth="yes"/>
      <point x="222.3" y="263"/>
      <point x="238.3" y="279"/>
      <point x="238.3" y="299" type="curve" smooth="yes"/>
      <point x="238.3" y="319"/>
      <point x="222.3" y="335"/>
      <point x="202.3" y="335" type="curve" smooth="yes"/>
      <point x="182.3" y="335"/>
      <point x="166.3" y="319"/>
    </contour>
    <contour>
      <point x="-33.7" y="299" type="curve" smooth="yes"/>
      <point x="-33.7" y="279"/>
      <point x="-17.7" y="263"/>
      <point x="2.3" y="263" type="curve" smooth="yes"/>
      <point x="22.3" y="263"/>
      <point x="38.3" y="279"/>
      <point x="38.3" y="299" type="curve" smooth="yes"/>
      <point x="38.3" y="319"/>
      <point x="22.3" y="335"/>
      <point x="2.3" y="335" type="curve" smooth="yes"/>
      <point x="-17.7" y="335"/>
      <point x="-33.7" y="319"/>
    </contour>
    <contour>
      <point x="366.3" y="299" type="curve" smooth="yes"/>
      <point x="366.3" y="279"/>
      <point x="382.3" y="263"/>
      <point x="402.3" y="263" type="curve" smooth="yes"/>
      <point x="422.3" y="263"/>
      <point x="438.3" y="279"/>
      <point x="438.3" y="299" type="curve" smooth="yes"/>
      <point x="438.3" y="319"/>
      <point x="422.3" y="335"/>
      <point x="402.3" y="335" type="curve" smooth="yes"/>
      <point x="382.3" y="335"/>
      <point x="366.3" y="319"/>
    </contour>
    <contour>
      <point x="566.3" y="299" type="curve" smooth="yes"/>
      <point x="566.3" y="279"/>
      <point x="582.3" y="263"/>
      <point x="602.3" y="263" type="curve" smooth="yes"/>
      <point x="622.3" y="263"/>
      <point x="638.3" y="279"/>
      <point x="638.3" y="299" type="curve" smooth="yes"/>
      <point x="638.3" y="319"/>
      <point x="622.3" y="335"/>
      <point x="602.3" y="335" type="curve" smooth="yes"/>
      <point x="582.3" y="335"/>
      <point x="566.3" y="319"/>
    </contour>
    <contour>
      <point x="766.3" y="299" type="curve" smooth="yes"/>
      <point x="766.3" y="279"/>
      <point x="782.3" y="263"/>
      <point x="802.3" y="263" type="curve" smooth="yes"/>
      <point x="822.3" y="263"/>
      <point x="838.3" y="279"/>
      <point x="838.3" y="299" type="curve" smooth="yes"/>
      <point x="838.3" y="319"/>
      <point x="822.3" y="335"/>
      <point x="802.3" y="335" type="curve" smooth="yes"/>
      <point x="782.3" y="335"/>
      <point x="766.3" y="319"/>
    </contour>
    <contour>
      <point x="966.3" y="299" type="curve" smooth="yes"/>
      <point x="966.3" y="279"/>
      <point x="982.3" y="263"/>
      <point x="1002.3" y="263" type="curve" smooth="yes"/>
      <point x="1022.3" y="263"/>
      <point x="1038.3" y="279"/>
      <point x="1038.3" y="299" type="curve" smooth="yes"/>
      <point x="1038.3" y="319"/>
      <point x="1022.3" y="335"/>
      <point x="1002.3" y="335" type="curve" smooth="yes"/>
      <point x="982.3" y="335"/>
      <point x="966.3" y="319"/>
    </contour>
    <contour>
      <point x="248.3" y="206" type="curve" smooth="yes"/>
      <point x="248.3" y="176"/>
      <point x="272.3" y="152"/>
      <point x="302.3" y="152" type="curve" smooth="yes"/>
      <point x="332.3" y="152"/>
      <point x="356.3" y="176"/>
      <point x="356.3" y="206" type="curve" smooth="yes"/>
      <point x="356.3" y="236"/>
      <point x="332.3" y="260"/>
      <point x="302.3" y="260" type="curve" smooth="yes"/>
      <point x="272.3" y="260"/>
      <point x="248.3" y="236"/>
    </contour>
    <contour>
      <point x="448.3" y="206" type="curve" smooth="yes"/>
      <point x="448.3" y="176"/>
      <point x="472.3" y="152"/>
      <point x="502.3" y="152" type="curve" smooth="yes"/>
      <point x="532.3" y="152"/>
      <point x="556.3" y="176"/>
      <point x="556.3" y="206" type="curve" smooth="yes"/>
      <point x="556.3" y="236"/>
      <point x="532.3" y="260"/>
      <point x="502.3" y="260" type="curve" smooth="yes"/>
      <point x="472.3" y="260"/>
      <point x="448.3" y="236"/>
    </contour>
    <contour>
      <point x="48.3" y="206" type="curve" smooth="yes"/>
      <point x="48.3" y="176"/>
      <point x="72.3" y="152"/>
      <point x="102.3" y="152" type="curve" smooth="yes"/>
      <point x="132.3" y="152"/>
      <point x="156.3" y="176"/>
      <point x="156.3" y="206" type="curve" smooth="yes"/>
      <point x="156.3" y="236"/>
      <point x="132.3" y="260"/>
      <point x="102.3" y="260" type="curve" smooth="yes"/>
      <point x="72.3" y="260"/>
      <point x="48.3" y="236"/>
    </contour>
    <contour>
      <point x="648.3" y="206" type="curve" smooth="yes"/>
      <point x="648.3" y="176"/>
      <point x="672.3" y="152"/>
      <point x="702.3" y="152" type="curve" smooth="yes"/>
      <point x="732.3" y="152"/>
      <point x="756.3" y="176"/>
      <point x="756.3" y="206" type="curve" smooth="yes"/>
      <point x="756.3" y="236"/>
      <point x="732.3" y="260"/>
      <point x="702.3" y="260" type="curve" smooth="yes"/>
      <point x="672.3" y="260"/>
      <point x="648.3" y="236"/>
    </contour>
    <contour>
      <point x="848.3" y="206" type="curve" smooth="yes"/>
      <point x="848.3" y="176"/>
      <point x="872.3" y="152"/>
      <point x="902.3" y="152" type="curve" smooth="yes"/>
      <point x="932.3" y="152"/>
      <point x="956.3" y="176"/>
      <point x="956.3" y="206" type="curve" smooth="yes"/>
      <point x="956.3" y="236"/>
      <point x="932.3" y="260"/>
      <point x="902.3" y="260" type="curve" smooth="yes"/>
      <point x="872.3" y="260"/>
      <point x="848.3" y="236"/>
    </contour>
    <contour>
      <point x="1048.3" y="206" type="curve" smooth="yes"/>
      <point x="1048.3" y="176"/>
      <point x="1072.3" y="152"/>
      <point x="1102.3" y="152" type="curve" smooth="yes"/>
      <point x="1132.3" y="152"/>
      <point x="1156.3" y="176"/>
      <point x="1156.3" y="206" type="curve" smooth="yes"/>
      <point x="1156.3" y="236"/>
      <point x="1132.3" y="260"/>
      <point x="1102.3" y="260" type="curve" smooth="yes"/>
      <point x="1072.3" y="260"/>
      <point x="1048.3" y="236"/>
    </contour>
    <contour>
      <point x="166.3" y="113" type="curve" smooth="yes"/>
      <point x="166.3" y="93"/>
      <point x="182.3" y="77"/>
      <point x="202.3" y="77" type="curve" smooth="yes"/>
      <point x="222.3" y="77"/>
      <point x="238.3" y="93"/>
      <point x="238.3" y="113" type="curve" smooth="yes"/>
      <point x="238.3" y="133"/>
      <point x="222.3" y="149"/>
      <point x="202.3" y="149" type="curve" smooth="yes"/>
      <point x="182.3" y="149"/>
      <point x="166.3" y="133"/>
    </contour>
    <contour>
      <point x="366.3" y="113" type="curve" smooth="yes"/>
      <point x="366.3" y="93"/>
      <point x="382.3" y="77"/>
      <point x="402.3" y="77" type="curve" smooth="yes"/>
      <point x="422.3" y="77"/>
      <point x="438.3" y="93"/>
      <point x="438.3" y="113" type="curve" smooth="yes"/>
      <point x="438.3" y="133"/>
      <point x="422.3" y="149"/>
      <point x="402.3" y="149" type="curve" smooth="yes"/>
      <point x="382.3" y="149"/>
      <point x="366.3" y="133"/>
    </contour>
    <contour>
      <point x="-33.7" y="113" type="curve" smooth="yes"/>
      <point x="-33.7" y="93"/>
      <point x="-17.7" y="77"/>
      <point x="2.3" y="77" type="curve" smooth="yes"/>
      <point x="22.3" y="77"/>
      <point x="38.3" y="93"/>
      <point x="38.3" y="113" type="curve" smooth="yes"/>
      <point x="38.3" y="133"/>
      <point x="22.3" y="149"/>
      <point x="2.3" y="149" type="curve" smooth="yes"/>
      <point x="-17.7" y="149"/>
      <point x="-33.7" y="133"/>
    </contour>
    <contour>
      <point x="766.3" y="113" type="curve" smooth="yes"/>
      <point x="766.3" y="93"/>
      <point x="782.3" y="77"/>
      <point x="802.3" y="77" type="curve" smooth="yes"/>
      <point x="822.3" y="77"/>
      <point x="838.3" y="93"/>
      <point x="838.3" y="113" type="curve" smooth="yes"/>
      <point x="838.3" y="133"/>
      <point x="822.3" y="149"/>
      <point x="802.3" y="149" type="curve" smooth="yes"/>
      <point x="782.3" y="149"/>
      <point x="766.3" y="133"/>
    </contour>
    <contour>
      <point x="966.3" y="113" type="curve" smooth="yes"/>
      <point x="966.3" y="93"/>
      <point x="982.3" y="77"/>
      <point x="1002.3" y="77" type="curve" smooth="yes"/>
      <point x="1022.3" y="77"/>
      <point x="1038.3" y="93"/>
      <point x="1038.3" y="113" type="curve" smooth="yes"/>
      <point x="1038.3" y="133"/>
      <point x="1022.3" y="149"/>
      <point x="1002.3" y="149" type="curve" smooth="yes"/>
      <point x="982.3" y="149"/>
      <point x="966.3" y="133"/>
    </contour>
    <contour>
      <point x="566.3" y="113" type="curve" smooth="yes"/>
      <point x="566.3" y="93"/>
      <point x="582.3" y="77"/>
      <point x="602.3" y="77" type="curve" smooth="yes"/>
      <point x="622.3" y="77"/>
      <point x="638.3" y="93"/>
      <point x="638.3" y="113" type="curve" smooth="yes"/>
      <point x="638.3" y="133"/>
      <point x="622.3" y="149"/>
      <point x="602.3" y="149" type="curve" smooth="yes"/>
      <point x="582.3" y="149"/>
      <point x="566.3" y="133"/>
    </contour>
    <contour>
      <point x="248.3" y="20" type="curve" smooth="yes"/>
      <point x="248.3" y="-10"/>
      <point x="272.3" y="-34"/>
      <point x="302.3" y="-34" type="curve" smooth="yes"/>
      <point x="332.3" y="-34"/>
      <point x="356.3" y="-10"/>
      <point x="356.3" y="20" type="curve" smooth="yes"/>
      <point x="356.3" y="50"/>
      <point x="332.3" y="74"/>
      <point x="302.3" y="74" type="curve" smooth="yes"/>
      <point x="272.3" y="74"/>
      <point x="248.3" y="50"/>
    </contour>
    <contour>
      <point x="448.3" y="20" type="curve" smooth="yes"/>
      <point x="448.3" y="-10"/>
      <point x="472.3" y="-34"/>
      <point x="502.3" y="-34" type="curve" smooth="yes"/>
      <point x="532.3" y="-34"/>
      <point x="556.3" y="-10"/>
      <point x="556.3" y="20" type="curve" smooth="yes"/>
      <point x="556.3" y="50"/>
      <point x="532.3" y="74"/>
      <point x="502.3" y="74" type="curve" smooth="yes"/>
      <point x="472.3" y="74"/>
      <point x="448.3" y="50"/>
    </contour>
    <contour>
      <point x="48.3" y="20" type="curve" smooth="yes"/>
      <point x="48.3" y="-10"/>
      <point x="72.3" y="-34"/>
      <point x="102.3" y="-34" type="curve" smooth="yes"/>
      <point x="132.3" y="-34"/>
      <point x="156.3" y="-10"/>
      <point x="156.3" y="20" type="curve" smooth="yes"/>
      <point x="156.3" y="50"/>
      <point x="132.3" y="74"/>
      <point x="102.3" y="74" type="curve" smooth="yes"/>
      <point x="72.3" y="74"/>
      <point x="48.3" y="50"/>
    </contour>
    <contour>
      <point x="848.3" y="20" type="curve" smooth="yes"/>
      <point x="848.3" y="-10"/>
      <point x="872.3" y="-34"/>
      <point x="902.3" y="-34" type="curve" smooth="yes"/>
      <point x="932.3" y="-34"/>
      <point x="956.3" y="-10"/>
      <point x="956.3" y="20" type="curve" smooth="yes"/>
      <point x="956.3" y="50"/>
      <point x="932.3" y="74"/>
      <point x="902.3" y="74" type="curve" smooth="yes"/>
      <point x="872.3" y="74"/>
      <point x="848.3" y="50"/>
    </contour>
    <contour>
      <point x="1048.3" y="20" type="curve" smooth="yes"/>
      <point x="1048.3" y="-10"/>
      <point x="1072.3" y="-34"/>
      <point x="1102.3" y="-34" type="curve" smooth="yes"/>
      <point x="1132.3" y="-34"/>
      <point x="1156.3" y="-10"/>
      <point x="1156.3" y="20" type="curve" smooth="yes"/>
      <point x="1156.3" y="50"/>
      <point x="1132.3" y="74"/>
      <point x="1102.3" y="74" type="curve" smooth="yes"/>
      <point x="1072.3" y="74"/>
      <point x="1048.3" y="50"/>
    </contour>
    <contour>
      <point x="648.3" y="20" type="curve" smooth="yes"/>
      <point x="648.3" y="-10"/>
      <point x="672.3" y="-34"/>
      <point x="702.3" y="-34" type="curve" smooth="yes"/>
      <point x="732.3" y="-34"/>
      <point x="756.3" y="-10"/>
      <point x="756.3" y="20" type="curve" smooth="yes"/>
      <point x="756.3" y="50"/>
      <point x="732.3" y="74"/>
      <point x="702.3" y="74" type="curve" smooth="yes"/>
      <point x="672.3" y="74"/>
      <point x="648.3" y="50"/>
    </contour>
    <contour>
      <point x="166.3" y="-73" type="curve" smooth="yes"/>
      <point x="166.3" y="-93"/>
      <point x="182.3" y="-109"/>
      <point x="202.3" y="-109" type="curve" smooth="yes"/>
      <point x="222.3" y="-109"/>
      <point x="238.3" y="-93"/>
      <point x="238.3" y="-73" type="curve" smooth="yes"/>
      <point x="238.3" y="-53"/>
      <point x="222.3" y="-37"/>
      <point x="202.3" y="-37" type="curve" smooth="yes"/>
      <point x="182.3" y="-37"/>
      <point x="166.3" y="-53"/>
    </contour>
    <contour>
      <point x="-33.7" y="-73" type="curve" smooth="yes"/>
      <point x="-33.7" y="-93"/>
      <point x="-17.7" y="-109"/>
      <point x="2.3" y="-109" type="curve" smooth="yes"/>
      <point x="22.3" y="-109"/>
      <point x="38.3" y="-93"/>
      <point x="38.3" y="-73" type="curve" smooth="yes"/>
      <point x="38.3" y="-53"/>
      <point x="22.3" y="-37"/>
      <point x="2.3" y="-37" type="curve" smooth="yes"/>
      <point x="-17.7" y="-37"/>
      <point x="-33.7" y="-53"/>
    </contour>
    <contour>
      <point x="366.3" y="-73" type="curve" smooth="yes"/>
      <point x="366.3" y="-93"/>
      <point x="382.3" y="-109"/>
      <point x="402.3" y="-109" type="curve" smooth="yes"/>
      <point x="422.3" y="-109"/>
      <point x="438.3" y="-93"/>
      <point x="438.3" y="-73" type="curve" smooth="yes"/>
      <point x="438.3" y="-53"/>
      <point x="422.3" y="-37"/>
      <point x="402.3" y="-37" type="curve" smooth="yes"/>
      <point x="382.3" y="-37"/>
      <point x="366.3" y="-53"/>
    </contour>
    <contour>
      <point x="766.3" y="-73" type="curve" smooth="yes"/>
      <point x="766.3" y="-93"/>
      <point x="782.3" y="-109"/>
      <point x="802.3" y="-109" type="curve" smooth="yes"/>
      <point x="822.3" y="-109"/>
      <point x="838.3" y="-93"/>
      <point x="838.3" y="-73" type="curve" smooth="yes"/>
      <point x="838.3" y="-53"/>
      <point x="822.3" y="-37"/>
      <point x="802.3" y="-37" type="curve" smooth="yes"/>
      <point x="782.3" y="-37"/>
      <point x="766.3" y="-53"/>
    </contour>
    <contour>
      <point x="966.3" y="-73" type="curve" smooth="yes"/>
      <point x="966.3" y="-93"/>
      <point x="982.3" y="-109"/>
      <point x="1002.3" y="-109" type="curve" smooth="yes"/>
      <point x="1022.3" y="-109"/>
      <point x="1038.3" y="-93"/>
      <point x="1038.3" y="-73" type="curve" smooth="yes"/>
      <point x="1038.3" y="-53"/>
      <point x="1022.3" y="-37"/>
      <point x="1002.3" y="-37" type="curve" smooth="yes"/>
      <point x="982.3" y="-37"/>
      <point x="966.3" y="-53"/>
    </contour>
    <contour>
      <point x="566.3" y="-73" type="curve" smooth="yes"/>
      <point x="566.3" y="-93"/>
      <point x="582.3" y="-109"/>
      <point x="602.3" y="-109" type="curve" smooth="yes"/>
      <point x="622.3" y="-109"/>
      <point x="638.3" y="-93"/>
      <point x="638.3" y="-73" type="curve" smooth="yes"/>
      <point x="638.3" y="-53"/>
      <point x="622.3" y="-37"/>
      <point x="602.3" y="-37" type="curve" smooth="yes"/>
      <point x="582.3" y="-37"/>
      <point x="566.3" y="-53"/>
    </contour>
    <contour>
      <point x="48.3" y="-166" type="curve" smooth="yes"/>
      <point x="48.3" y="-196"/>
      <point x="72.3" y="-220"/>
      <point x="102.3" y="-220" type="curve" smooth="yes"/>
      <point x="132.3" y="-220"/>
      <point x="156.3" y="-196"/>
      <point x="156.3" y="-166" type="curve" smooth="yes"/>
      <point x="156.3" y="-136"/>
      <point x="132.3" y="-112"/>
      <point x="102.3" y="-112" type="curve" smooth="yes"/>
      <point x="72.3" y="-112"/>
      <point x="48.3" y="-136"/>
    </contour>
    <contour>
      <point x="248.3" y="-166" type="curve" smooth="yes"/>
      <point x="248.3" y="-196"/>
      <point x="272.3" y="-220"/>
      <point x="302.3" y="-220" type="curve" smooth="yes"/>
      <point x="332.3" y="-220"/>
      <point x="356.3" y="-196"/>
      <point x="356.3" y="-166" type="curve" smooth="yes"/>
      <point x="356.3" y="-136"/>
      <point x="332.3" y="-112"/>
      <point x="302.3" y="-112" type="curve" smooth="yes"/>
      <point x="272.3" y="-112"/>
      <point x="248.3" y="-136"/>
    </contour>
    <contour>
      <point x="448.3" y="-166" type="curve" smooth="yes"/>
      <point x="448.3" y="-196"/>
      <point x="472.3" y="-220"/>
      <point x="502.3" y="-220" type="curve" smooth="yes"/>
      <point x="532.3" y="-220"/>
      <point x="556.3" y="-196"/>
      <point x="556.3" y="-166" type="curve" smooth="yes"/>
      <point x="556.3" y="-136"/>
      <point x="532.3" y="-112"/>
      <point x="502.3" y="-112" type="curve" smooth="yes"/>
      <point x="472.3" y="-112"/>
      <point x="448.3" y="-136"/>
    </contour>
    <contour>
      <point x="848.3" y="-166" type="curve" smooth="yes"/>
      <point x="848.3" y="-196"/>
      <point x="872.3" y="-220"/>
      <point x="902.3" y="-220" type="curve" smooth="yes"/>
      <point x="932.3" y="-220"/>
      <point x="956.3" y="-196"/>
      <point x="956.3" y="-166" type="curve" smooth="yes"/>
      <point x="956.3" y="-136"/>
      <point x="932.3" y="-112"/>
      <point x="902.3" y="-112" type="curve" smooth="yes"/>
      <point x="872.3" y="-112"/>
      <point x="848.3" y="-136"/>
    </contour>
    <contour>
      <point x="1048.3" y="-166" type="curve" smooth="yes"/>
      <point x="1048.3" y="-196"/>
      <point x="1072.3" y="-220"/>
      <point x="1102.3" y="-220" type="curve" smooth="yes"/>
      <point x="1132.3" y="-220"/>
      <point x="1156.3" y="-196"/>
      <point x="1156.3" y="-166" type="curve" smooth="yes"/>
      <point x="1156.3" y="-136"/>
      <point x="1132.3" y="-112"/>
      <point x="1102.3" y="-112" type="curve" smooth="yes"/>
      <point x="1072.3" y="-112"/>
      <point x="1048.3" y="-136"/>
    </contour>
    <contour>
      <point x="648.3" y="-166" type="curve" smooth="yes"/>
      <point x="648.3" y="-196"/>
      <point x="672.3" y="-220"/>
      <point x="702.3" y="-220" type="curve" smooth="yes"/>
      <point x="732.3" y="-220"/>
      <point x="756.3" y="-196"/>
      <point x="756.3" y="-166" type="curve" smooth="yes"/>
      <point x="756.3" y="-136"/>
      <point x="732.3" y="-112"/>
      <point x="702.3" y="-112" type="curve" smooth="yes"/>
      <point x="672.3" y="-112"/>
      <point x="648.3" y="-136"/>
    </contour>
    <contour>
      <point x="166.3" y="-259" type="curve" smooth="yes"/>
      <point x="166.3" y="-279"/>
      <point x="182.3" y="-295"/>
      <point x="202.3" y="-295" type="curve" smooth="yes"/>
      <point x="222.3" y="-295"/>
      <point x="238.3" y="-279"/>
      <point x="238.3" y="-259" type="curve" smooth="yes"/>
      <point x="238.3" y="-239"/>
      <point x="222.3" y="-223"/>
      <point x="202.3" y="-223" type="curve" smooth="yes"/>
      <point x="182.3" y="-223"/>
      <point x="166.3" y="-239"/>
    </contour>
    <contour>
      <point x="-33.7" y="-259" type="curve" smooth="yes"/>
      <point x="-33.7" y="-279"/>
      <point x="-17.7" y="-295"/>
      <point x="2.3" y="-295" type="curve" smooth="yes"/>
      <point x="22.3" y="-295"/>
      <point x="38.3" y="-279"/>
      <point x="38.3" y="-259" type="curve" smooth="yes"/>
      <point x="38.3" y="-239"/>
      <point x="22.3" y="-223"/>
      <point x="2.3" y="-223" type="curve" smooth="yes"/>
      <point x="-17.7" y="-223"/>
      <point x="-33.7" y="-239"/>
    </contour>
    <contour>
      <point x="366.3" y="-259" type="curve" smooth="yes"/>
      <point x="366.3" y="-279"/>
      <point x="382.3" y="-295"/>
      <point x="402.3" y="-295" type="curve" smooth="yes"/>
      <point x="422.3" y="-295"/>
      <point x="438.3" y="-279"/>
      <point x="438.3" y="-259" type="curve" smooth="yes"/>
      <point x="438.3" y="-239"/>
      <point x="422.3" y="-223"/>
      <point x="402.3" y="-223" type="curve" smooth="yes"/>
      <point x="382.3" y="-223"/>
      <point x="366.3" y="-239"/>
    </contour>
    <contour>
      <point x="766.3" y="-259" type="curve" smooth="yes"/>
      <point x="766.3" y="-279"/>
      <point x="782.3" y="-295"/>
      <point x="802.3" y="-295" type="curve" smooth="yes"/>
      <point x="822.3" y="-295"/>
      <point x="838.3" y="-279"/>
      <point x="838.3" y="-259" type="curve" smooth="yes"/>
      <point x="838.3" y="-239"/>
      <point x="822.3" y="-223"/>
      <point x="802.3" y="-223" type="curve" smooth="yes"/>
      <point x="782.3" y="-223"/>
      <point x="766.3" y="-239"/>
    </contour>
    <contour>
      <point x="966.3" y="-259" type="curve" smooth="yes"/>
      <point x="966.3" y="-279"/>
      <point x="982.3" y="-295"/>
      <point x="1002.3" y="-295" type="curve" smooth="yes"/>
      <point x="1022.3" y="-295"/>
      <point x="1038.3" y="-279"/>
      <point x="1038.3" y="-259" type="curve" smooth="yes"/>
      <point x="1038.3" y="-239"/>
      <point x="1022.3" y="-223"/>
      <point x="1002.3" y="-223" type="curve" smooth="yes"/>
      <point x="982.3" y="-223"/>
      <point x="966.3" y="-239"/>
    </contour>
    <contour>
      <point x="566.3" y="-259" type="curve" smooth="yes"/>
      <point x="566.3" y="-279"/>
      <point x="582.3" y="-295"/>
      <point x="602.3" y="-295" type="curve" smooth="yes"/>
      <point x="622.3" y="-295"/>
      <point x="638.3" y="-279"/>
      <point x="638.3" y="-259" type="curve" smooth="yes"/>
      <point x="638.3" y="-239"/>
      <point x="622.3" y="-223"/>
      <point x="602.3" y="-223" type="curve" smooth="yes"/>
      <point x="582.3" y="-223"/>
      <point x="566.3" y="-239"/>
    </contour>
  </outline>
</glyph>
